<?xml version="1.0" encoding="UTF-8" standalone="no"?>
<svg width="122px" height="60px" viewBox="0 0 122 60" version="1.1" xmlns="http://www.w3.org/2000/svg" xmlns:xlink="http://www.w3.org/1999/xlink">
    <!-- Generator: Sketch 3.7.2 (28276) - http://www.bohemiancoding.com/sketch -->
    <title>logo/logo—Final</title>
    <desc>Created with Sketch.</desc>
    <defs></defs>
    <g id="Index—B-1.3" stroke="none" stroke-width="1" fill="none" fill-rule="evenodd">
        <g id="img/Index—B-2048px" transform="translate(-1344.000000, -1160.000000)">
            <g id="Group-5" transform="translate(1344.000000, 1160.000000)">
                <g id="logo/logo—Final">
                    <g id="btn—logo-320px" fill-opacity="0" fill="#FFFFFF">
                        <g id="btn—blue-invite">
                            <polygon id="bg—Header-white" points="0 0 160 0 160 60 0 60"></polygon>
                        </g>
                    </g>
                    <path d="M31.026201,33.0298272 C31.026201,33.0298272 25.6318782,27.6298557 24.5642966,26.5612509 C23.1816518,25.1772809 23.4030088,23.3592648 23.4030088,23.3592648 L22.2077763,24.5561214 C19.3483023,27.4188145 19.0432791,32.3048222 22.1972584,35.4618242 L25.4674142,38.7346359 C26.8385848,40.1075993 26.6282238,41.9371004 26.6282238,41.9371004 L31.026201,37.5344295 C32.2692427,36.290675 32.2692427,34.2735818 31.026201,33.0298272 L31.026201,33.0298272 L31.026201,33.0298272 L31.026201,33.0298272 Z M31.0309819,22.4734666 L29.9275434,21.3689704 C28.6103973,20.0510405 26.6000164,20.1601501 25.4167362,21.3445643 C24.175607,22.5868832 24.1330567,24.5848344 25.4239077,25.8769226 C26.6573875,27.1115846 28.7863355,29.2425731 28.7863355,29.2425731 L31.0309819,26.9957753 C32.2788045,25.7472352 32.2788045,23.7224852 31.0309819,22.4734666 L31.0309819,22.4734666 L31.0309819,22.4734666 L31.0309819,22.4734666 Z M23.502452,45.0634753 L24.6063687,43.9585005 C25.9230368,42.6405707 25.8140316,40.6282629 24.6302734,39.4433701 C23.3891441,38.2010513 21.3935841,38.1589388 20.102733,39.4510269 L16.7403053,42.8166775 L18.9844737,45.0634753 C20.2322963,46.3120154 22.2551077,46.3120154 23.502452,45.0634753 L23.502452,45.0634753 L23.502452,45.0634753 L23.502452,45.0634753 Z M0.935508392,37.5262942 L2.03942503,38.6312688 C3.35609303,39.9491988 5.36647392,39.8400891 6.55023208,38.6551964 C7.79136139,37.4128774 7.83343357,35.4154049 6.5425826,34.1233167 C5.30910276,32.8886546 3.18015483,30.7576661 3.18015483,30.7576661 L0.935508392,33.0039854 C-0.311836131,34.2530041 -0.311836131,36.2777541 0.935508392,37.5262942 L0.935508392,37.5262942 L0.935508392,37.5262942 L0.935508392,37.5262942 Z M8.46403817,14.9367639 L7.36059963,16.0412601 C6.04345353,17.3596686 6.15293682,19.3719763 7.33621689,20.5563905 C8.57734617,21.7987094 10.5729062,21.8413005 11.8637572,20.5492123 C13.097715,19.3145502 15.226663,17.1830832 15.226663,17.1830832 L12.9820166,14.9367639 C11.7341941,13.6877454 9.71186081,13.6877454 8.46403817,14.9367639 L8.46403817,14.9367639 L8.46403817,14.9367639 L8.46403817,14.9367639 Z M12.9566777,45.0668253 L19.4185821,38.5987275 C20.801227,37.2147573 22.617502,37.4363266 22.617502,37.4363266 L21.4217915,36.2399486 C18.5623177,33.3777339 13.6805104,33.0724182 10.5270092,36.2294204 L7.25685346,39.502232 C5.88568287,40.8751953 4.0579335,40.6646327 4.0579335,40.6646327 L8.4559106,45.0668253 C9.69895233,46.3110582 11.713636,46.3110582 12.9566777,45.0668253 L12.9566777,45.0668253 L12.9566777,45.0668253 L12.9566777,45.0668253 Z M0.940289324,26.9704121 C0.940289324,26.9704121 6.33461216,32.3699051 7.40219372,33.4385099 C8.7848386,34.8224799 8.56348148,36.6409744 8.56348148,36.6409744 L9.75871393,35.4441179 C12.6181879,32.5814247 12.9232112,27.6949386 9.76923196,24.538415 L6.49955421,21.2651248 C5.12790553,19.89264 5.33826642,18.0631388 5.33826642,18.0631388 L0.940289324,22.4653312 C-0.302752368,23.7095643 -0.302752368,25.726179 0.940289324,26.9704121 L0.940289324,26.9704121 L0.940289324,26.9704121 L0.940289324,26.9704121 Z M19.0098127,14.9377211 C19.0098127,14.9377211 13.6154897,20.3376926 12.5479083,21.4062974 C11.1652634,22.7902675 9.34898824,22.5682197 9.34898824,22.5682197 L10.5446987,23.7645977 C13.4041727,26.627291 18.2859799,26.932128 21.439481,23.7756044 L24.7096368,20.5023143 C26.0808075,19.1298295 27.9090349,19.340392 27.9090349,19.340392 L23.5105796,14.9377211 C22.267538,13.6939665 20.2528543,13.6939665 19.0098127,14.9377211 L19.0098127,14.9377211 L19.0098127,14.9377211 Z M105.183559,36.2416235 L98.3802953,21.7262089 C98.3047566,21.5644586 98.142205,21.4610915 97.9638764,21.4610915 L96.4779634,21.4610915 C96.2996348,21.4610915 96.1370831,21.5644586 96.0615444,21.7262089 L89.2664093,36.242102 C89.1234595,36.5474177 89.3462509,36.8981957 89.6833063,36.8981957 L91.8194256,36.8981957 C91.9996667,36.8981957 92.1626963,36.7929145 92.2377571,36.6292499 L93.8039895,33.2138302 L100.638806,33.2138302 L102.204083,36.6292499 C102.279144,36.7929145 102.442173,36.8981957 102.622414,36.8981957 L104.766661,36.8977171 C105.103716,36.8977171 105.326508,36.5469392 105.183559,36.2416235 L105.183559,36.2416235 L105.183559,36.2416235 Z M95.0599398,30.4741246 L97.2223542,25.7584812 L99.3833342,30.4741246 L95.0599398,30.4741246 L95.0599398,30.4741246 L95.0599398,30.4741246 Z M80.733406,32.2792196 L73.6671922,21.9922834 C73.4372296,21.6596903 73.05858,21.4610915 72.6545914,21.4610915 L70.5146474,21.4610915 C70.2603018,21.4610915 70.0542439,21.6678257 70.0542439,21.9219363 L70.0542439,36.4373509 C70.0542439,36.6914615 70.2679513,36.8977171 70.5218187,36.8977171 L72.5627975,36.8977171 C72.8171429,36.8977171 73.023201,36.6914615 73.023201,36.4368724 L73.023201,26.0848531 L80.0918054,36.3670039 C80.3222461,36.6995969 80.7004178,36.8977171 81.1044063,36.8977171 L83.2419599,36.8977171 C83.4963053,36.8977171 83.7023634,36.6914615 83.7023634,36.4368724 L83.7023634,21.9219363 C83.7023634,21.6673471 83.4963053,21.4610915 83.2419599,21.4610915 L81.1933315,21.4610915 C80.9394642,21.4610915 80.733406,21.6678257 80.733406,21.9219363 L80.733406,32.2792196 L80.733406,32.2792196 L80.733406,32.2792196 Z M113.179185,21.4610915 L111.131035,21.4610915 C110.876689,21.4610915 110.670631,21.6678257 110.671109,21.9219363 L110.677325,34.8409041 C110.677802,35.9769846 111.598131,36.8977171 112.733123,36.8977171 L121.539596,36.8977171 C121.793941,36.8977171 122,36.6914615 122,36.4368724 L122,34.5920576 C122,34.3374684 121.793941,34.1316913 121.539596,34.1316913 L113.63911,34.1316913 L113.63911,21.9219363 C113.63911,21.6673471 113.43353,21.4610915 113.179185,21.4610915 L113.179185,21.4610915 L113.179185,21.4610915 Z M60.2026603,36.8977171 L62.243161,36.8977171 C62.4970284,36.8977171 62.7030865,36.6914615 62.7030865,36.4368724 L62.7030865,21.9219363 C62.7030865,21.6673471 62.4970284,21.4610915 62.243161,21.4610915 L60.195489,21.4610915 C59.9411434,21.4610915 59.7350854,21.6678257 59.7350854,21.9219363 L59.7422568,36.4373509 C59.7422568,36.6914615 59.9483149,36.8977171 60.2026603,36.8977171 L60.2026603,36.8977171 L60.2026603,36.8977171 Z M41.9103456,36.8977171 L43.9518027,36.8977171 C44.20567,36.8977171 44.4117281,36.6914615 44.4117281,36.4368724 L44.4117281,31.4608971 L51.1050294,31.4608971 C51.3588969,31.4608971 51.5649548,31.2546415 51.5649548,31.0000524 L51.5649548,29.1667228 C51.5649548,28.9121335 51.3588969,28.705878 51.1050294,28.705878 L44.4117281,28.705878 L44.4117281,24.2156322 L53.2354116,24.2156322 C53.4892791,24.2156322 53.6953371,24.0098552 53.6953371,23.7552659 L53.6953371,21.9219363 C53.6953371,21.6673471 53.4892791,21.4610915 53.2354116,21.4610915 L43.6639907,21.4610915 C42.4376822,21.4610915 41.4437269,22.4569566 41.4442051,23.6844404 L41.4442051,36.4373509 C41.4442051,36.6914615 41.6564783,36.8977171 41.9103456,36.8977171 L41.9103456,36.8977171 L41.9103456,36.8977171 Z" fill-opacity="0.9" fill="#000000"></path>
                </g>
            </g>
        </g>
    </g>
</svg>