<?xml version="1.0" encoding="UTF-8" standalone="no"?>
<svg width="114px" height="60px" viewBox="0 0 114 60" version="1.1" xmlns="http://www.w3.org/2000/svg" xmlns:xlink="http://www.w3.org/1999/xlink">
    <!-- Generator: Sketch 3.7.2 (28276) - http://www.bohemiancoding.com/sketch -->
    <title>logo/logo—Lily</title>
    <desc>Created with Sketch.</desc>
    <defs></defs>
    <g id="Index—B-1.3" stroke="none" stroke-width="1" fill="none" fill-rule="evenodd">
        <g id="img/Index—B-2048px" transform="translate(-384.000000, -1160.000000)">
            <g id="Group" transform="translate(384.000000, 1160.000000)">
                <g id="logo/logo—Lily">
                    <g id="btn—logo-320px" fill-opacity="0" fill="#FFFFFF">
                        <g id="btn—blue-invite">
                            <polygon id="bg—Header-white" points="0 0 160 0 160 60 0 60"></polygon>
                        </g>
                    </g>
                    <path d="M43.1857231,22.7283 L46.7058125,22.7283 L46.7058125,35.163175 L54.6842569,35.163175 L54.6842569,38.270925 L43.1849251,38.270925 L43.1849251,22.729075 L43.1857231,22.7283 L43.1857231,22.7283 L43.1857231,22.7283 L43.1857231,22.7283 Z M66.2258744,22.7283 L69.7459638,22.7283 L69.7459638,38.2717 L66.2258744,38.2717 L66.2258744,22.7283 L66.2258744,22.7283 L66.2258744,22.7283 L66.2258744,22.7283 Z M81.2907728,22.7283 L84.8116603,22.7283 L84.8116603,35.163175 L92.7901048,35.163175 L92.7901048,38.270925 L81.2931664,38.270925 L81.2931664,22.729075 L81.2907728,22.7283 L81.2907728,22.7283 L81.2907728,22.7283 L81.2907728,22.7283 Z M104.330126,32.143 L98.1811393,22.7283 L102.295623,22.7283 L106.113309,28.96705 L109.99881,22.7283 L114,22.7283 L107.851014,32.07635 L107.851014,38.270925 L104.330924,38.270925 L104.330924,32.143 L104.330126,32.143 L104.330126,32.143 Z M0,15 L31.5866608,15 L31.5866608,46 L0,46 L0,15 L0,15 Z M9.24302764,31.29205 C7.80531201,31.29205 6.46493338,31.847725 5.46922353,32.856 C5.10620432,33.2218 5.16364912,33.8294 5.62879242,34.11925 C5.97026984,34.332375 6.42663685,34.251 6.70987162,33.968125 C7.72313404,32.962175 9.24701685,32.63745 10.728614,33.2218 C11.1458865,33.3861 11.4881618,33.67595 11.800119,33.991375 C11.9660707,34.15955 12.1870736,34.24325 12.4096722,34.24325 C12.6713651,34.24325 12.933856,34.12545 13.1053925,33.8883 C13.3423523,33.560475 13.2729398,33.10555 12.9833223,32.8188 C11.990006,31.83455 10.6639886,31.29205 9.24302764,31.29205 L9.24302764,31.29205 L9.24302764,31.29205 L9.24302764,31.29205 Z M25.9459007,32.82035 C24.9533822,31.833775 23.6273648,31.29205 22.2072017,31.29205 C20.7694861,31.29205 19.4291075,31.847725 18.4318019,32.856 C18.0703784,33.2218 18.1270254,33.8294 18.5913708,34.11925 C18.9344438,34.332375 19.3892152,34.251 19.6732479,33.968125 C20.6865102,32.962175 22.2103931,32.63745 23.6919901,33.2218 C24.1092628,33.3861 24.4515381,33.67595 24.7642931,33.99215 C24.9294469,34.15955 25.1504498,34.244025 25.3722506,34.244025 C25.6355392,34.244025 25.8972322,34.127775 26.0687687,33.889075 C26.3057285,33.56125 26.2347203,33.107875 25.9459007,32.821125 L25.9459007,32.82035 L25.9459007,32.82035 L25.9459007,32.82035 L25.9459007,32.82035 Z" id="logo—Lily" fill-opacity="0.9" fill="#000000"></path>
                </g>
            </g>
        </g>
    </g>
</svg>