<?xml version="1.0" encoding="UTF-8" standalone="no"?>
<svg width="44px" height="60px" viewBox="0 0 44 60" version="1.1" xmlns="http://www.w3.org/2000/svg" xmlns:xlink="http://www.w3.org/1999/xlink">
    <!-- Generator: Sketch 3.7.2 (28276) - http://www.bohemiancoding.com/sketch -->
    <title>logo/logo—Xero</title>
    <desc>Created with Sketch.</desc>
    <defs></defs>
    <g id="startup.ramotion.com" stroke="none" stroke-width="1" fill="none" fill-rule="evenodd">
        <g id="img/Index—B-1440px" transform="translate(-80.000000, -1112.000000)">
            <g id="Group" transform="translate(80.000000, 340.000000)">
                <g id="Group-8-Copy" transform="translate(0.000000, 772.000000)">
                    <g id="btn—logo-320px" fill-opacity="0" fill="#FFFFFF">
                        <g id="btn—blue-invite">
                            <polygon id="bg—Header-white" points="0 0 160 0 160 60 0 60"></polygon>
                        </g>
                    </g>
                    <path d="M22.0000376,52 C34.1502361,52 44,42.1502361 44,30.0000376 C44,17.8497639 34.1502361,8 22.0000376,8 C9.84976391,8 0,17.8497639 0,30.0000376 C0,42.1502361 9.84976391,52 22.0000376,52 L22.0000376,52 L22.0000376,52 Z M10.5311369,29.9365071 L14.2856313,26.1726573 C14.4101027,26.0457906 14.4795603,25.8778334 14.4795603,25.6997718 C14.4795603,25.3285283 14.1777763,25.027043 13.8066078,25.027043 C13.625777,25.027043 13.4561726,25.0979243 13.3283333,25.2274099 C13.3280336,25.2280084 9.57720774,28.9765893 9.57720774,28.9765893 L5.80939059,25.221721 C5.6820005,25.0961276 5.51336959,25.027043 5.33448483,25.027043 C4.96361524,25.027043 4.66183117,25.3283037 4.66183117,25.6991723 C4.66183117,25.8801534 4.73398383,26.0499073 4.863694,26.1778217 L8.61773917,29.9311931 L4.86571524,33.6903267 C4.733685,33.8201121 4.66183117,33.9903903 4.66183117,34.17197 C4.66183117,34.5430633 4.96361524,34.8443239 5.33448483,34.8443239 C5.51366933,34.8443239 5.68244967,34.7747159 5.80939059,34.647775 L9.57144467,30.8908111 L13.3192014,34.634003 C13.4520559,34.7714976 13.6235311,34.8447731 13.8066078,34.8447731 C14.1774023,34.8447731 14.4791863,34.5430633 14.4791863,34.17197 C14.4791863,33.9929349 14.4098781,33.8247532 14.2835357,33.6976619 L10.5311369,29.9365071 L10.5311369,29.9365071 L10.5311369,29.9365071 Z M29.1399231,29.9359534 C29.1399231,32.6554577 31.3526354,34.8679454 34.0726641,34.8679454 C36.7926176,34.8679454 39.0066023,32.6554577 39.0066023,29.9359534 C39.0066023,27.2159999 36.7926176,25.0028376 34.0726641,25.0028376 C31.3526354,25.0028376 29.1399231,27.2159999 29.1399231,29.9359534 L29.1399231,29.9359534 L29.1399231,29.9359534 Z M30.5323828,29.9359534 C30.5323828,27.9838586 32.1204198,26.3956721 34.0726641,26.3956721 C36.0240843,26.3956721 37.6122707,27.9838586 37.6122707,29.9359534 C37.6122707,31.887523 36.0240843,33.475186 34.0726641,33.475186 C32.1204198,33.475186 30.5323828,31.887523 30.5323828,29.9359534 L30.5323828,29.9359534 L30.5323828,29.9359534 Z M33.1432242,29.9354974 C33.1432242,30.4481813 33.5603671,30.8652819 34.0731498,30.8652819 C34.5859184,30.8652819 35.0033011,30.4481813 35.0033011,29.9354974 C35.0033011,29.4227289 34.5859184,29.0055011 34.0731498,29.0055011 C33.5603671,29.0055011 33.1432242,29.4227289 33.1432242,29.9354974 L33.1432242,29.9354974 L33.1432242,29.9354974 Z M28.7898013,25.0872882 L28.5828491,25.0866896 C27.9615407,25.0866896 27.362313,25.2826399 26.8618836,25.6683283 C26.7957928,25.3664691 26.5260426,25.1395317 26.2047977,25.1395317 C25.8349767,25.1395317 25.5385817,25.4357773 25.5376834,25.8063472 C25.5376834,25.8076194 25.5399293,34.1144052 25.5399293,34.1144052 C25.5409018,34.4842261 25.8426868,34.7849624 26.2126572,34.7849624 C26.5827027,34.7849624 26.8842622,34.4842261 26.8852357,34.1134317 C26.8852357,34.1120099 26.8856848,29.0050986 26.8856848,29.0050986 C26.8856848,27.3023957 27.0412927,26.6149233 28.4996937,26.4326697 C28.6346427,26.4159039 28.7811938,26.4185237 28.7817933,26.4185237 C29.180954,26.404826 29.4644763,26.1305107 29.4644763,25.7599409 C29.4644763,25.388998 29.1617187,25.0872882 28.7898013,25.0872882 L28.7898013,25.0872882 L28.7898013,25.0872882 Z M24.1737549,28.9968211 C23.8839461,27.6243447 23.1326278,26.4969932 21.9883611,25.7730694 C20.3158963,24.7112101 18.1073007,24.7698904 16.4917197,25.9187223 C15.1740326,26.8561111 14.4133587,28.3897339 14.4133587,29.9695373 C14.4133587,30.365629 14.4611106,30.7653892 14.5605084,31.1589371 C15.0580934,33.1164201 16.740812,34.5980981 18.7470956,34.8438224 C19.3423569,34.9158257 19.9217507,34.8813206 20.5218017,34.7257879 C21.0374257,34.6004191 21.5363583,34.3912202 21.9960703,34.0966961 C22.4732227,33.7899712 22.8717849,33.3854966 23.2580718,32.9013087 C23.2657067,32.8924014 23.2737147,32.8845429 23.2813497,32.875037 C23.5493033,32.5427893 23.4996796,32.0702779 23.2052297,31.8446881 C22.9568863,31.6543514 22.5398369,31.5771837 22.2119306,31.9973021 C22.1414243,32.0978219 22.0627596,32.2009616 21.976086,32.304401 C21.715243,32.5926377 21.391678,32.8718937 21.0038189,33.0885763 C20.5104249,33.3521896 19.9480216,33.5029317 19.3503659,33.5063747 C17.3936309,33.4844443 16.3466654,32.1185551 15.9741504,31.143593 C15.9091084,30.9617887 15.8589603,30.7727996 15.8239317,30.5784956 C15.819441,30.5420443 15.815998,30.5069414 15.8146504,30.4747573 C16.2193506,30.4747573 22.8362319,30.4733346 22.8362319,30.4733346 C23.7989189,30.4533503 24.3169373,29.7738859 24.1737549,28.9968211 L24.1737549,28.9968211 L24.1737549,28.9968211 Z M15.8731063,29.123762 C15.8731063,29.1054993 15.8744539,29.0861887 15.8754264,29.0673266 C16.2660547,27.5233757 17.6642043,26.3809798 19.3293338,26.3809798 C21.0146713,26.3809798 22.4256944,27.5515183 22.796488,29.123762 L15.8731063,29.123762 L15.8731063,29.123762 L15.8731063,29.123762 Z" id="logo—Xero" fill-opacity="0.9" fill="#000000"></path>
                </g>
            </g>
        </g>
    </g>
</svg>