<?xml version="1.0" encoding="UTF-8" standalone="no"?>
<svg width="150px" height="60px" viewBox="0 0 150 60" version="1.1" xmlns="http://www.w3.org/2000/svg" xmlns:xlink="http://www.w3.org/1999/xlink">
    <!-- Generator: Sketch 3.7.2 (28276) - http://www.bohemiancoding.com/sketch -->
    <title>logo/logo—HumanAPI</title>
    <desc>Created with Sketch.</desc>
    <defs></defs>
    <g id="Index—B-1.3" stroke="none" stroke-width="1" fill="none" fill-rule="evenodd">
        <g id="img/Index—B-2048px" transform="translate(-1344.000000, -1540.000000)">
            <g id="Group-29" transform="translate(1344.000000, 1540.000000)">
                <g id="logo/logo—HumanAPI">
                    <g id="btn—logo-320px" fill-opacity="0" fill="#FFFFFF">
                        <g id="btn—blue-invite">
                            <polygon id="bg—Header-white" points="0 0 160 0 160 60 0 60"></polygon>
                        </g>
                    </g>
                    <path d="M19.1124096,12 C19.4038195,12.0410735 19.6941435,12.0933733 19.9868022,12.1214932 C22.2022129,12.3342009 24.3100619,12.9327077 26.2761424,13.9608935 C31.2797387,16.5775592 34.5005054,20.612096 35.7547031,26.1025007 C37.6566051,34.4289715 33.3989899,42.6011874 26.0374546,46.1733374 C23.9087556,47.2063269 21.6623417,47.8018651 19.2963123,47.9468365 C19.180063,47.9539071 19.065063,47.9818111 18.9495197,48 L17.2663245,48 C16.7098384,47.9404138 16.1507462,47.8985847 15.5973008,47.8182729 C11.6321275,47.2428127 8.20378457,45.5720241 5.36260553,42.7625128 C2.43770091,39.870207 0.70504162,36.3753463 0.163269934,32.3045398 C0.100665953,31.8342729 0.0540251395,31.361955 0,30.8905547 L0,29.0554723 C0.0235103827,28.9608575 0.0553282433,28.8673763 0.0692281676,28.7713584 C0.198562708,27.8778891 0.255357045,26.9676882 0.463258735,26.0928936 C1.8092176,20.429883 5.14091239,16.3188666 10.3804816,13.7459191 C12.2210827,12.842087 14.1818422,12.3155802 16.2296393,12.1213853 C16.5221351,12.0936432 16.8122419,12.0410735 17.1034346,12 L19.1124096,12 L19.1124096,12 L19.1124096,12 L19.1124096,12 Z M18.1030354,45.9210675 C26.7686671,45.9590105 34.2440625,39.0150585 34.1425279,29.7186927 C34.0489747,21.1626747 27.0835875,14.1231364 18.2487676,14.053997 C9.19583805,13.9831304 2.16947566,21.1509086 2.07266482,29.7085457 C1.96770939,38.9868305 9.41747693,45.9515622 18.1030354,45.9210675 L18.1030354,45.9210675 L18.1030354,45.9210675 Z M10.8689883,36.6426747 C11.0831342,36.3861949 11.2487932,36.1784527 11.4241714,35.9791844 C12.2197254,35.0757301 13.0215778,34.1776731 13.8143627,33.2718441 C14.7192703,32.2378292 15.6139155,31.1949086 16.5188773,30.1608397 C17.1992681,29.3834124 17.892636,28.6171574 18.5732984,27.8398921 C19.354301,26.9481499 20.1254759,26.0478261 20.9052295,25.1548966 C21.3366162,24.6608816 21.7731611,24.1711304 22.2167644,23.6879101 C22.2890332,23.6092174 22.4091915,23.5278801 22.5082286,23.5265847 C23.4468,23.5144407 24.3856428,23.5193523 25.379651,23.5193523 C25.13271,23.8146387 24.9205731,24.0748426 24.7015404,24.3291634 C23.8340978,25.3361379 22.9662205,26.3427886 22.0952485,27.3467406 C21.3712575,28.1813253 20.6390675,29.0089476 19.9170311,29.8452054 C19.1013873,30.790003 18.2957883,31.7434902 17.4804704,32.6886657 C16.870285,33.395982 16.2505435,34.0951485 15.6371544,34.7997661 C15.1476706,35.3620569 14.6639962,35.9293673 14.1702228,36.4879341 C14.1068043,36.5597182 13.9986455,36.6351724 13.9104135,36.6360899 C12.9250927,36.6465607 11.9396091,36.6426747 10.8689883,36.6426747 L10.8689883,36.6426747 L10.8689883,36.6426747 Z M55.4597598,22.5681859 C56.3087968,22.5681859 57.0952288,22.5643538 57.8813355,22.575958 C57.9397584,22.5768216 58.0110496,22.6809355 58.0489489,22.7515862 C58.0753911,22.8007557 58.0554644,22.8748066 58.0554644,22.9377392 C58.0555183,27.5509746 58.0555731,32.164156 58.0548675,36.7773374 C58.0548675,36.8912203 58.0453647,37.0051035 58.0397186,37.1330194 L55.4607918,37.1330194 L55.4607918,30.6886956 L48.5953645,30.6886956 L48.5953645,37.1271904 L46.0130717,37.1271904 L46.0130717,22.5860509 L48.5801615,22.5860509 L48.5801615,28.4421769 L55.4597598,28.4421769 L55.4597598,22.5681859 L55.4597598,22.5681859 L55.4597598,22.5681859 Z M75.6132527,27.2997301 L75.6132527,28.7785908 C76.3331176,27.5894572 77.3761013,26.9836642 78.7492087,26.974003 C80.1359989,26.9642878 81.1801224,27.5687857 81.8475369,28.8211755 C81.9070457,28.7423749 81.9526002,28.6892654 81.9902819,28.6311364 C82.7899087,27.3977452 83.9562538,26.922135 85.3933773,26.9892235 C86.4986935,27.0408216 87.4030573,27.4693673 88.0596664,28.3678022 C88.49089,28.9578351 88.7058505,29.6347647 88.7592791,30.3517962 C88.8066801,30.9871125 88.8057569,31.6267466 88.8084168,32.2645457 C88.8147158,33.7755202 88.8104259,35.2865487 88.8104259,36.7975773 L88.8104259,37.1312924 L86.3346632,37.1312924 C86.3346632,37.0248035 86.3349347,36.9210675 86.3346094,36.8173314 C86.3295591,35.0366537 86.3293963,33.255976 86.3148453,31.4754063 C86.3122383,31.1538891 86.284222,30.8248696 86.2095643,30.5131215 C86.0407552,29.8080181 85.6749052,29.2397901 84.9063368,29.0818651 C84.1106196,28.9183809 83.4178489,29.127904 82.8898689,29.7694273 C82.4209625,30.3393283 82.2552496,31.0144228 82.2515577,31.7306986 C82.2428154,33.4126057 82.248734,35.0945668 82.248734,36.7764737 L82.248734,37.1237361 L79.7723735,37.1237361 L79.7723735,36.8197061 C79.7723735,34.9758261 79.7767182,33.132 79.7678671,31.2882819 C79.7665097,30.9945067 79.7389816,30.6925817 79.6666045,30.4087917 C79.3343629,29.1055053 77.9189587,28.5967017 76.7956711,29.3646837 C76.1862992,29.7813553 75.9191059,30.3988066 75.7950928,31.0901469 C75.7494295,31.3450076 75.7365062,31.6085037 75.7357467,31.86806 C75.7306425,33.514021 75.7331397,35.159982 75.7331397,36.8059431 L75.7331397,37.1247077 L73.2764893,37.1247077 L73.2764893,27.2997301 L75.6132527,27.2997301 L75.6132527,27.2997301 L75.6132527,27.2997301 Z M118.359894,37.1468906 C118.405178,37.0345188 118.435585,36.9531814 118.470279,36.8737871 C120.520085,32.1888756 122.571684,27.5046657 124.615517,22.8171634 C124.702608,22.6174633 124.810876,22.5565278 125.020514,22.5617091 C125.572168,22.5755262 126.124909,22.5790345 126.676235,22.5604678 C126.912427,22.5524798 127.021997,22.6302009 127.115225,22.8461469 C128.949527,27.0953344 130.792679,31.3407436 132.633769,35.5871245 C132.854214,36.0957122 133.072486,36.6051635 133.30607,37.1474302 C132.324659,37.1474302 131.385382,37.1517482 130.446484,37.1384168 C130.377691,37.1374454 130.28213,37.0203778 130.247434,36.9373134 C129.84504,35.9757841 129.446829,35.0124197 129.061106,34.0441979 C128.985091,33.8534572 128.883502,33.7966777 128.68152,33.7974333 C126.744975,33.8052594 124.808432,33.8054213 122.871889,33.7972715 C122.66806,33.7964618 122.568371,33.8563719 122.494745,34.0467347 C122.118904,35.0186807 121.731388,35.9862009 121.340345,36.9522639 C121.309287,37.0289595 121.221326,37.1377692 121.15856,37.1386327 C120.23796,37.1506686 119.317035,37.1468906 118.359894,37.1468906 L118.359894,37.1468906 L118.359894,37.1468906 Z M128.047877,31.5853493 C127.297607,29.6166837 126.556239,27.6712264 125.786641,25.6517182 C125.001512,27.6770556 124.249666,29.6165217 123.486309,31.5853493 L128.047877,31.5853493 L128.047877,31.5853493 L128.047877,31.5853493 Z M137.367457,37.1357182 L134.791788,37.1357182 L134.791788,22.5930674 C134.862048,22.5847017 134.938553,22.5675383 135.015002,22.5678082 C136.787787,22.5739611 138.56106,22.5583088 140.33303,22.5990045 C141.321554,22.6217812 142.293192,22.799946 143.178118,23.2855952 C144.341098,23.9237182 144.946668,24.9248096 145.063622,26.2205398 C145.139474,27.0601979 145.096635,27.8939191 144.716288,28.6726416 C144.130156,29.8729476 143.106502,30.5318502 141.848015,30.8119161 C141.069726,30.9851155 140.260164,31.0364978 139.46108,31.0950585 C138.876251,31.137967 138.285342,31.1157301 137.697907,31.0978111 C137.441247,31.0899851 137.359855,31.1592324 137.361539,31.4238081 C137.372942,33.2131215 137.367457,35.0025428 137.367457,36.7919641 L137.367457,37.1357182 L137.367457,37.1357182 L137.367457,37.1357182 Z M92.807309,29.9928216 C92.4086629,29.5253614 91.9947601,29.039982 91.5699971,28.5418651 C92.1510801,28.0110405 92.7959069,27.6287496 93.5201143,27.3734572 C94.7245762,26.9489055 95.9537978,26.8654092 97.2037055,27.1176791 C98.9119319,27.4623509 100.030116,28.7093433 100.161243,30.4509445 C100.215104,31.1666807 100.207232,31.8877061 100.210707,32.6064108 C100.217603,34.0093854 100.212716,35.4124138 100.212716,36.8154423 L100.212716,37.1276762 L97.9112449,37.1276762 L97.9112449,35.895958 C97.835664,35.9451274 97.8014026,35.9561919 97.7850601,35.9796702 C97.0954383,36.9677001 96.0863354,37.3412473 94.9375277,37.3954902 C94.0875685,37.4357001 93.2599795,37.2905668 92.5055281,36.8677962 C91.1419773,36.1037001 90.7603266,34.7585847 91.147407,33.4012714 C91.3195816,32.7975293 91.7473847,32.3863088 92.2552203,32.0508667 C93.0412731,31.5315922 93.9309231,31.2847196 94.8505446,31.1785007 C95.755615,31.073955 96.6698069,31.0470225 97.5799816,30.985979 C97.6597435,30.9806896 97.7394506,30.9747526 97.8144886,30.9694092 C97.9500674,30.3351724 97.7056234,29.6916521 97.1740055,29.3611755 C96.1544239,28.7273703 95.0919474,28.7840419 94.0401675,29.2586267 C93.61774,29.4492054 93.2378809,29.7326718 92.807309,29.9928216 L92.807309,29.9928216 L92.807309,29.9928216 Z M97.8192665,32.6546087 C97.7799558,32.6474842 97.7361389,32.6311844 97.6932443,32.6330734 C97.0082386,32.6638381 96.320571,32.6700451 95.6391484,32.7377811 C95.0535601,32.7959641 94.4848573,32.9551844 93.9979794,33.3129715 C93.2217548,33.8834124 93.3242122,34.9725337 94.2175552,35.3277301 C94.5825369,35.4728095 95.0076252,35.5292114 95.4041534,35.5246238 C97.047658,35.5057331 98.1185491,34.2202038 97.8192665,32.6546087 L97.8192665,32.6546087 L97.8192665,32.6546087 Z M112.274819,37.1346927 L109.798404,37.1346927 L109.798404,36.8063209 C109.798404,35.0705487 109.803508,33.3348305 109.794006,31.5991665 C109.79216,31.2598381 109.757681,30.9164618 109.696163,30.5826387 C109.571607,29.9073824 109.246207,29.34018 108.555608,29.129847 C107.781991,28.8942549 107.047248,29.034261 106.436629,29.600006 C105.858859,30.1353644 105.621039,30.8317781 105.61056,31.5891814 C105.586506,33.3245757 105.598778,35.0604019 105.596334,36.7960661 C105.596172,36.9019611 105.596279,37.0078562 105.596279,37.1309145 L103.133765,37.1309145 L103.133765,27.293901 L105.477207,27.293901 L105.477207,28.7813973 C105.772038,28.4461169 106.029241,28.1023088 106.337266,27.8117721 C107.900031,26.3376613 111.536546,26.6387226 112.15846,29.8395922 C112.233336,30.2248515 112.267488,30.6235503 112.269714,31.0163118 C112.280846,32.9408276 112.274819,34.8654513 112.274819,36.790075 L112.274819,37.1346927 L112.274819,37.1346927 L112.274819,37.1346927 Z M61.1025358,27.2866686 L63.5782996,27.2866686 L63.5782996,27.602087 C63.5782996,29.3288457 63.5709147,31.0556582 63.5840006,32.7823088 C63.5869869,33.1750705 63.619727,33.5771155 63.7112713,33.9576791 C63.8815457,34.6656972 64.2754678,35.2163838 65.0489228,35.3498591 C65.9201661,35.5001739 66.6622922,35.2379191 67.2105252,34.5311965 C67.5804485,34.0543449 67.762071,33.4942669 67.7678259,32.8986207 C67.7845499,31.1450915 67.778251,29.3913463 67.7809657,27.6376553 C67.7811833,27.5314362 67.7810207,27.4251095 67.7810207,27.2982189 L70.2316436,27.2982189 L70.2316436,37.1317781 L67.918445,37.1317781 L67.918445,35.6015352 C67.8510083,35.6452534 67.8236978,35.6532413 67.8132178,35.6710524 C67.0658798,36.9497811 65.9389531,37.5157422 64.467189,37.4288996 C62.7426738,37.3271604 61.5086207,36.2263269 61.2089577,34.5057752 C61.1429872,34.1272084 61.1091601,33.7384947 61.107151,33.354099 C61.0970524,31.4385968 61.1025358,29.5229325 61.1025358,27.6073223 L61.1025358,27.2866686 L61.1025358,27.2866686 L61.1025358,27.2866686 Z M147.447136,22.5827586 L150,22.5827586 L150,37.1248696 L147.447136,37.1248696 L147.447136,22.5827586 L147.447136,22.5827586 L147.447136,22.5827586 Z M137.367457,28.3529055 C137.367457,27.2382009 137.371963,26.1234423 137.363494,25.0087377 C137.361918,24.802129 137.413719,24.7213314 137.635737,24.7308305 C138.601022,24.7720661 139.567339,24.7914423 140.532353,24.8373733 C140.744164,24.8474664 140.958202,24.9171994 141.161054,24.9880661 C142.01818,25.2875083 142.454616,25.8849895 142.476063,26.7663149 C142.497022,27.6264289 142.077472,28.319928 141.243041,28.6026927 C140.704418,28.7852295 140.12187,28.8752025 139.551973,28.9214572 C138.896179,28.9747287 138.232619,28.9349506 137.572481,28.9327917 C137.511941,28.9326297 137.451563,28.9124438 137.367457,28.8972774 L137.367457,28.3529055 L137.367457,28.3529055 L137.367457,28.3529055 Z" fill-opacity="0.9" fill="#000000"></path>
                </g>
            </g>
        </g>
    </g>
</svg>