<?xml version="1.0" encoding="UTF-8" standalone="no"?>
<svg width="67px" height="60px" viewBox="0 0 67 60" version="1.1" xmlns="http://www.w3.org/2000/svg" xmlns:xlink="http://www.w3.org/1999/xlink">
    <!-- Generator: Sketch 3.7.2 (28276) - http://www.bohemiancoding.com/sketch -->
    <title>logo/logo—VOX</title>
    <desc>Created with Sketch.</desc>
    <defs></defs>
    <g id="Index—B-1.3" stroke="none" stroke-width="1" fill="none" fill-rule="evenodd">
        <g id="img/Index—B-2048px" transform="translate(-384.000000, -2300.000000)">
            <g id="Group-20" transform="translate(384.000000, 2300.000000)">
                <g id="logo/logo—VOX">
                    <g id="btn—logo-320px" fill-opacity="0" fill="#FFFFFF">
                        <g id="btn—blue-invite">
                            <polygon id="bg—Header-white" points="0 0 160 0 160 60 0 60"></polygon>
                        </g>
                    </g>
                    <path d="M33.1498157,18.0181059 C33.1302795,18.0373291 32.9337267,18.0691025 32.7088177,18.0893863 C31.9855811,18.1546125 31.8400518,18.1758684 31.8400518,18.2163034 C31.8400518,18.2387083 31.7783121,18.2560754 31.6989324,18.2560754 C31.6195528,18.2560754 31.498984,18.274459 31.4233087,18.2980571 C31.3486037,18.32139 31.2006048,18.3626646 31.0903553,18.3908585 C30.9801058,18.4190967 30.8575965,18.4593549 30.8147315,18.4814505 C30.7715137,18.503767 30.6890471,18.5212225 30.6273074,18.5212225 C30.5655677,18.5212225 30.5170579,18.5406667 30.5170579,18.5654579 C30.5170579,18.5904701 30.4597282,18.6096491 30.3847586,18.6096491 C30.3097889,18.6096491 30.2524592,18.6287839 30.2524592,18.6537961 C30.2524592,18.6772616 30.2017444,18.6979873 30.1444147,18.6979873 C30.0870849,18.6979873 30.023934,18.7187571 30.0099103,18.7422227 C29.9950046,18.7671465 29.9459656,18.7863697 29.8974558,18.7863697 C29.848946,18.7863697 29.8114612,18.805637 29.8114612,18.830605 C29.8114612,18.8540264 29.7607465,18.874752 29.7034167,18.874752 C29.646087,18.874752 29.5829361,18.8955219 29.5689123,18.9189432 C29.5539625,18.9439112 29.5049676,18.9631786 29.4564579,18.9631786 C29.4079481,18.9631786 29.3704633,18.9824018 29.3704633,19.0073698 C29.3704633,19.0316308 29.3307735,19.0515168 29.2822637,19.0515168 C29.2337539,19.0515168 29.1940641,19.0714028 29.1940641,19.095708 C29.1940641,19.1200131 29.1543743,19.1399433 29.1058645,19.1399433 C29.0573547,19.1399433 29.0176649,19.1597852 29.0176649,19.1840903 C29.0176649,19.2084397 28.9779751,19.2283257 28.9294653,19.2283257 C28.8809556,19.2283257 28.8412657,19.2482118 28.8412657,19.2724727 C28.8412657,19.2967779 28.8015759,19.3166639 28.7530661,19.3166639 C28.7045564,19.3166639 28.6648666,19.3346055 28.6648666,19.356436 C28.6648666,19.3775152 28.6295867,19.4073442 28.5898969,19.4198061 C28.4840574,19.4531263 28.248785,19.5962615 28.2291606,19.6393038 C28.2209139,19.6573338 28.1929988,19.6702376 28.1621289,19.6702376 C28.1322733,19.6702376 28.0717243,19.7039113 28.0232145,19.747528 C27.9762924,19.7897306 27.8820952,19.8530123 27.8159455,19.8867302 C27.7497958,19.9204923 27.6946711,19.9656999 27.6946711,19.9861604 C27.6946711,20.0071954 27.6704162,20.0237671 27.6395463,20.0237671 C27.6096026,20.0237671 27.5138619,20.0843532 27.4300723,20.1562965 C27.3462827,20.2282839 27.2605968,20.2889142 27.2426482,20.2889142 C27.2240822,20.2889142 27.1301937,20.3665139 27.0287642,20.4656789 C26.9273346,20.5647998 26.8305356,20.6423995 26.8082652,20.6423995 C26.750274,20.6423995 25.4450082,21.9548777 25.3140319,22.144944 C25.2561729,22.2288631 25.1752057,22.3298842 25.136883,22.3658558 C25.0985603,22.4018716 25.0179458,22.5028927 24.9604838,22.5868117 C24.9030218,22.670775 24.8183502,22.7808994 24.7752647,22.8276979 C24.7305034,22.876264 24.695885,22.9350383 24.695885,22.9624368 C24.695885,22.9891725 24.6561952,23.0388876 24.6076854,23.072959 C24.5591757,23.106942 24.5194859,23.1705773 24.5194859,23.2143266 C24.5194859,23.2585619 24.5028161,23.2938707 24.482001,23.2938707 C24.4615387,23.2938707 24.4164687,23.3491539 24.3827765,23.4153965 C24.3490842,23.4817274 24.3110261,23.5469978 24.2989869,23.5590178 C24.255725,23.6023694 24.1181777,23.8462605 24.0946284,23.9214297 C24.080737,23.9655767 24.052028,24.0009739 24.0299781,24.0009739 C24.0081487,24.0009739 23.9902883,24.0407459 23.9902883,24.0893121 C23.9902883,24.1379224 23.9704434,24.1777386 23.9461885,24.1777386 C23.9219336,24.1777386 23.9020887,24.2174665 23.9020887,24.266121 C23.9020887,24.3146871 23.8822438,24.3544592 23.8579889,24.3544592 C23.833734,24.3544592 23.8138891,24.3942312 23.8138891,24.4428857 C23.8138891,24.491496 23.7940442,24.5312681 23.7697893,24.5312681 C23.7455345,24.5312681 23.7256896,24.5710402 23.7256896,24.6196063 C23.7256896,24.6682166 23.7058446,24.7080329 23.6815898,24.7080329 C23.6573349,24.7080329 23.63749,24.7477607 23.63749,24.7964152 C23.63749,24.8449814 23.6176451,24.8847534 23.5933902,24.8847534 C23.569885,24.8847534 23.5492904,24.9157314 23.5492904,24.9510402 C23.5492904,24.9889562 23.5322679,25.0504704 23.5096006,25.0947057 C23.4871097,25.1384992 23.4469788,25.2294447 23.416991,25.3046139 C23.3870031,25.3797389 23.3468723,25.4706844 23.3243814,25.5144778 C23.302552,25.5570339 23.2846916,25.6316287 23.2846916,25.6801948 C23.2846916,25.7288051 23.2648467,25.7685772 23.2405918,25.7685772 C23.2171748,25.7685772 23.196492,25.819397 23.196492,25.8768898 C23.196492,25.9343383 23.1758092,25.9975759 23.1523922,26.0116287 C23.1284901,26.026035 23.1082924,26.0978015 23.1082924,26.1685516 C23.1082924,26.2392133 23.0880947,26.2989156 23.0641926,26.2989156 C23.0402905,26.2989156 23.0200928,26.3585295 23.0200928,26.4292354 C23.0200928,26.4999855 22.9998951,26.571752 22.975993,26.5861583 C22.9516941,26.6007414 22.9318932,26.6811252 22.9318932,26.7651326 C22.9318932,26.8490517 22.9140769,26.9175922 22.8922034,26.9175922 C22.8707268,26.9175922 22.8414005,27.003765 22.8282587,27.1053605 C22.8150288,27.2078399 22.781557,27.4036511 22.7546121,27.5362246 C22.6351016,28.1240116 22.5161204,29.3081144 22.5191633,29.8784017 C22.5209714,30.2066096 22.5622929,30.7931151 22.6515509,31.7565271 C22.6650454,31.9023139 22.6939749,32.0405439 22.7158043,32.0636117 C22.7372809,32.0863701 22.7554941,32.1917661 22.7554941,32.2934059 C22.7554941,32.3950456 22.7737073,32.4923988 22.7951839,32.5055236 C22.8171015,32.5189577 22.8459427,32.6049537 22.8596137,32.6977552 C22.9162819,33.0822185 22.942389,33.1945967 22.980403,33.2174436 C23.0023206,33.2306125 23.0200928,33.2987554 23.0200928,33.3694613 C23.0200928,33.4401672 23.0398495,33.5095031 23.0641926,33.5241304 C23.0880947,33.5385367 23.1082924,33.6103032 23.1082924,33.6810091 C23.1082924,33.751715 23.1284901,33.8113731 23.1523922,33.8113731 C23.1766471,33.8113731 23.196492,33.8511452 23.196492,33.8997555 C23.196492,33.94841 23.2163369,34.0279099 23.2405918,34.0765202 C23.2648467,34.1251305 23.3045365,34.2046747 23.3287914,34.253285 C23.3530463,34.3018953 23.3728912,34.3814394 23.3728912,34.4300497 C23.3728912,34.4787042 23.3927361,34.5184321 23.416991,34.5184321 C23.4404962,34.5184321 23.4610908,34.5493659 23.4610908,34.5847189 C23.4610908,34.6198509 23.478863,34.6863586 23.4988843,34.7261307 C23.6656697,35.0575646 23.7256896,35.1967668 23.7256896,35.2520058 C23.7256896,35.2873588 23.7446084,35.3138735 23.7697893,35.3138735 C23.7940442,35.3138735 23.8138891,35.3536455 23.8138891,35.4022558 C23.8138891,35.4508661 23.8287949,35.4906382 23.846964,35.4906382 C23.8652213,35.4906382 23.9143926,35.5657632 23.9568607,35.6586089 C24.0336384,35.8264912 24.1699068,36.0683938 24.2107873,36.109359 C24.2228265,36.121379 24.2571803,36.1756016 24.2863743,36.228631 C24.4225986,36.4761017 24.4563349,36.5293521 24.5299816,36.6130944 C24.5727143,36.6617047 24.6076854,36.7233514 24.6076854,36.750087 C24.6076854,36.7768227 24.6473753,36.8265378 24.695885,36.860565 C24.7443948,36.8945922 24.7840846,36.9443073 24.7840846,36.971043 C24.7840846,36.9984857 24.818703,37.0572158 24.8634643,37.1058261 C24.9065498,37.1526245 24.9912214,37.2627048 25.0486834,37.346668 C25.1061454,37.4306313 25.2069576,37.5518477 25.2691824,37.6118152 C25.3314072,37.6718268 25.43341,37.7930432 25.4922832,37.8769623 C25.6311535,38.074983 26.4334169,38.8807651 26.636276,39.0259331 C26.7204625,39.0862099 26.8677999,39.2117571 26.9604095,39.3021281 C27.0530191,39.3925432 27.1482305,39.467845 27.1698835,39.467845 C27.191316,39.467845 27.273518,39.528873 27.3484877,39.6004186 C27.4234573,39.6720083 27.5148321,39.7329921 27.5469368,39.7329921 C27.5778066,39.7329921 27.6064715,39.7511105 27.6064715,39.7705546 C27.6064715,39.7910593 27.6615962,39.8362669 27.7277459,39.8699848 C27.7938956,39.9037469 27.8880928,39.9670287 27.935015,40.009187 C27.9835247,40.0528479 28.0440737,40.0865658 28.0739293,40.0865658 C28.1047992,40.0865658 28.1327143,40.0994254 28.140961,40.1174554 C28.1605854,40.1604977 28.3958578,40.3036329 28.5016973,40.3369531 C28.5413871,40.349415 28.576667,40.379244 28.576667,40.400279 C28.576667,40.4221537 28.6163568,40.4400511 28.6648666,40.4400511 C28.7133763,40.4400511 28.7530661,40.4599371 28.7530661,40.4842865 C28.7530661,40.5085475 28.792756,40.5284335 28.8412657,40.5284335 C28.8897755,40.5284335 28.9294653,40.5483195 28.9294653,40.5726247 C28.9294653,40.596974 28.9691551,40.61686 29.0176649,40.61686 C29.0661747,40.61686 29.1058645,40.6367019 29.1058645,40.661007 C29.1058645,40.6853122 29.1455543,40.7051982 29.1940641,40.7051982 C29.2425739,40.7051982 29.2822637,40.7250843 29.2822637,40.7494336 C29.2822637,40.7736946 29.3219535,40.7935806 29.3704633,40.7935806 C29.418973,40.7935806 29.4586629,40.8134666 29.4586629,40.8377718 C29.4586629,40.8613699 29.4895327,40.8820072 29.5248126,40.8820072 C29.5626061,40.8820072 29.6240371,40.8990208 29.6681369,40.921735 C29.7118839,40.9442726 29.8026413,40.9845307 29.8776109,41.0145365 C29.9525806,41.0445865 30.0433379,41.0848005 30.0870849,41.1073822 C30.129553,41.1292569 30.2039494,41.1471101 30.2524592,41.1471101 C30.3009689,41.1471101 30.3406588,41.1669961 30.3406588,41.1913013 C30.3406588,41.2163577 30.3979885,41.2354925 30.4729581,41.2354925 C30.5479278,41.2354925 30.6052575,41.2546714 30.6052575,41.2796837 C30.6052575,41.3036795 30.6647922,41.3238748 30.7353519,41.3238748 C30.8059116,41.3238748 30.8775738,41.3441144 30.8919062,41.368066 C30.9065032,41.3924596 30.9756958,41.4122572 31.0462555,41.4122572 C31.1168151,41.4122572 31.1860077,41.4320991 31.2006048,41.4564484 C31.2153341,41.4810629 31.3042393,41.5006396 31.4012588,41.5006396 C31.4982784,41.5006396 31.575453,41.5202605 31.575453,41.5448308 C31.575453,41.5695337 31.6592426,41.589022 31.7650821,41.589022 C31.8709216,41.589022 31.9732332,41.6066101 31.996606,41.628794 C32.0196261,41.6507129 32.1575703,41.6797023 32.3030996,41.693269 C33.2821151,41.7846563 33.7561438,41.8192139 34.0450415,41.8202744 C34.4240792,41.8216002 35.3900852,41.7437795 35.8090333,41.6781556 C35.9677926,41.6532759 36.1842344,41.6214141 36.294131,41.6066984 C36.4043805,41.5919828 36.5111902,41.5625073 36.5344749,41.5404117 C36.5576714,41.5184044 36.6403144,41.5006396 36.7196941,41.5006396 C36.7990737,41.5006396 36.8748371,41.4809303 36.8894783,41.4564484 C36.9040312,41.4321433 36.9842928,41.4122572 37.0680824,41.4122572 C37.151872,41.4122572 37.2202267,41.3924154 37.2202267,41.368066 C37.2202267,41.3430538 37.2775565,41.3238748 37.3525261,41.3238748 C37.4274958,41.3238748 37.4848255,41.3047401 37.4848255,41.2796837 C37.4848255,41.2546714 37.5421552,41.2354925 37.6171249,41.2354925 C37.6920945,41.2354925 37.7494243,41.2163577 37.7494243,41.1913013 C37.7494243,41.1662891 37.806754,41.1471101 37.8817236,41.1471101 C37.9566933,41.1471101 38.014023,41.1318199 38.014023,41.1117571 C38.014023,41.0919595 38.1110426,41.0491824 38.234522,41.0145365 C38.3580014,40.9799348 38.455021,40.9371578 38.455021,40.9173159 C38.455021,40.897916 38.4947108,40.8820072 38.5432206,40.8820072 C38.5917303,40.8820072 38.6314202,40.8621211 38.6314202,40.8377718 C38.6314202,40.8125386 38.65788,40.7935806 38.6931599,40.7935806 C38.7637195,40.7935806 39.3095427,40.5208768 39.3299609,40.4754041 C39.3383399,40.4567996 39.3855266,40.4400511 39.4296264,40.4400511 C39.4737262,40.4400511 39.5134161,40.4191487 39.5134161,40.3958599 C39.5134161,40.3715548 39.5531059,40.3516687 39.6016156,40.3516687 C39.6501254,40.3516687 39.6898152,40.3318269 39.6898152,40.3074776 C39.6898152,40.2837027 39.7162751,40.2632864 39.747145,40.2632864 C39.7791614,40.2632864 39.8463695,40.2242655 39.8992893,40.174904 C39.952209,40.1255866 40.0155363,40.0865658 40.0426136,40.0865658 C40.0696909,40.0865658 40.1330182,40.0475008 40.1859379,39.9981392 C40.2388577,39.9488219 40.3060658,39.9097569 40.3380822,39.9097569 C40.3689521,39.9097569 40.3954119,39.8934503 40.3954119,39.8744039 C40.3954119,39.8551366 40.4505367,39.806924 40.5166864,39.7683893 C40.5853939,39.7283079 40.6952906,39.6478799 40.7702602,39.5827863 C40.8452299,39.5176485 40.9187883,39.467845 40.9400444,39.467845 C40.9601098,39.467845 41.031772,39.4103965 41.0943937,39.3441097 C41.1578533,39.2769391 41.2818178,39.1710128 41.3656074,39.1123269 C41.5552365,38.9795766 42.7768009,37.7534037 42.7768009,37.6957784 C42.7768009,37.6735061 42.8542401,37.5764622 42.9532,37.4748225 C43.05216,37.3731828 43.1295992,37.2761831 43.1295992,37.2538666 C43.1295992,37.2324338 43.190501,37.1500615 43.2618986,37.0748923 C43.3332962,36.9997672 43.394198,36.9082473 43.394198,36.8760319 C43.394198,36.8450981 43.4122348,36.8163738 43.4316828,36.8163738 C43.4521451,36.8163738 43.4972151,36.7611348 43.5309074,36.694848 C43.5645996,36.6285613 43.6277505,36.5341689 43.6698217,36.4871937 C43.7133482,36.4385392 43.7469963,36.3778647 43.7469963,36.3479472 C43.7469963,36.3170134 43.7598735,36.2890404 43.7778662,36.2807766 C43.8208194,36.2611115 43.9636586,36.0253516 43.9968658,35.9192927 C44.009346,35.8795207 44.0391134,35.8442119 44.0601049,35.8442119 C44.0819343,35.8442119 44.0997947,35.8043956 44.0997947,35.7557853 C44.0997947,35.707175 44.1196396,35.667403 44.1438945,35.667403 C44.1681494,35.667403 44.1879943,35.6276309 44.1879943,35.5790648 C44.1879943,35.5304103 44.2078392,35.4906382 44.2320941,35.4906382 C44.256349,35.4906382 44.2761939,35.4508661 44.2761939,35.4022558 C44.2761939,35.3536455 44.2960388,35.3138735 44.3202937,35.3138735 C44.3445486,35.3138735 44.3643935,35.2741456 44.3643935,35.2254911 C44.3643935,35.1768808 44.3842384,35.1371087 44.4084933,35.1371087 C44.4327482,35.1371087 44.4525931,35.0973366 44.4525931,35.0487263 C44.4525931,35.000116 44.472438,34.960344 44.4966929,34.960344 C44.520198,34.960344 44.5407926,34.9294101 44.5407926,34.8940572 C44.5407926,34.8561853 44.5578152,34.794627 44.5804825,34.75048 C44.6029734,34.7066424 44.6431042,34.6156527 44.673092,34.5405277 C44.7030799,34.4654027 44.7432107,34.3744572 44.7657016,34.3306196 C44.787531,34.2881076 44.8053914,34.2135571 44.8053914,34.1649026 C44.8053914,34.1162923 44.8252363,34.0765202 44.8494912,34.0765202 C44.8729082,34.0765202 44.893591,34.0257004 44.893591,33.9682518 C44.893591,33.9108033 44.9142738,33.8475657 44.9376908,33.8334687 C44.9615929,33.8191066 44.9817906,33.7583437 44.9817906,33.7008952 C44.9817906,33.6434466 45.0019883,33.5826837 45.0258904,33.5683216 C45.0502335,33.5536943 45.0699902,33.4843583 45.0699902,33.4136524 C45.0699902,33.3429465 45.0897469,33.2736548 45.11409,33.2590275 C45.1384331,33.244356 45.1581898,33.17502 45.1581898,33.1043141 C45.1581898,33.0336082 45.1779465,32.9643165 45.2022896,32.949645 C45.2269414,32.9348409 45.2463894,32.8568435 45.2463894,32.7728802 C45.2463894,32.688917 45.2658374,32.6109637 45.2904892,32.5961597 C45.3143471,32.5817975 45.334589,32.483428 45.334589,32.3817882 C45.334589,32.2801485 45.3528022,32.1747525 45.3742788,32.1519941 C45.3961082,32.1289263 45.4248612,31.9906962 45.4382235,31.8448653 C45.4516298,31.6984157 45.4859835,31.3720638 45.5149571,31.1157107 C45.6351291,30.0531337 45.5636433,28.6012764 45.3343685,27.4478864 C45.3080409,27.3153129 45.2750542,27.1294889 45.2618243,27.0390738 C45.2482416,26.9462723 45.2201059,26.8626626 45.1978796,26.8490517 C45.175962,26.8356617 45.1581898,26.767298 45.1581898,26.6966363 C45.1581898,26.6259304 45.1384331,26.5565502 45.11409,26.5419229 C45.0897469,26.5272956 45.0699902,26.4579597 45.0699902,26.387298 C45.0699902,26.3165479 45.0502335,26.2472561 45.0258904,26.2325846 C45.0019883,26.2182667 44.9817906,26.1574596 44.9817906,26.1000552 C44.9817906,26.0426067 44.965606,25.9838324 44.9465108,25.9718566 C44.9269305,25.9596157 44.8837127,25.850375 44.8494912,25.7265955 C44.8152698,25.6029044 44.772052,25.5034742 44.7524717,25.5034742 C44.7337293,25.5034742 44.7171918,25.4526544 44.7171918,25.3951616 C44.7171918,25.3377573 44.696509,25.2744755 44.673092,25.2604227 C44.6482197,25.2454419 44.6289922,25.1963013 44.6289922,25.1477352 C44.6289922,25.0990807 44.6097647,25.0615624 44.5848924,25.0615624 C44.5611668,25.0615624 44.5407926,25.0350476 44.5407926,25.0040696 C44.5407926,24.9429974 44.4249425,24.677099 44.267418,24.376599 C44.2164828,24.2793784 44.152935,24.1550685 44.1262546,24.100404 C44.100368,24.0473746 44.0623099,24.0009739 44.04467,24.0009739 C44.0264567,24.0009739 44.0115951,23.9612018 44.0115951,23.9125915 C44.0115951,23.863937 43.9937347,23.8241649 43.9719053,23.8241649 C43.9509138,23.8241649 43.9211464,23.7888562 43.9086662,23.7490841 C43.875459,23.6430253 43.7326198,23.4072653 43.6896666,23.387556 C43.6735702,23.3802203 43.6587968,23.3491539 43.6587968,23.322595 C43.6587968,23.2950197 43.5982918,23.2010692 43.5264974,23.117106 C43.4546588,23.0331869 43.394198,22.9372036 43.394198,22.907242 C43.394198,22.876264 43.3786749,22.852003 43.3589182,22.852003 C43.3392496,22.852003 43.289461,22.7923007 43.2464637,22.7171757 C43.2034664,22.6420949 43.1263358,22.5393946 43.0722695,22.485172 C43.0180708,22.430861 42.9282396,22.3217088 42.8686607,22.2377455 C42.5995197,21.8584084 41.5640565,20.8217715 41.1803883,20.5475652 C41.1010087,20.4908237 40.9767354,20.3883444 40.9069696,20.3220576 C40.8364099,20.2549754 40.7563247,20.2004876 40.7283654,20.2004876 C40.7004943,20.2004876 40.6498678,20.1607156 40.6159109,20.1121053 C40.5819541,20.0635391 40.5323418,20.0237671 40.5056614,20.0237671 C40.4782755,20.0237671 40.4196668,19.9900492 40.3711571,19.9463883 C40.3242349,19.9042299 40.2300377,19.8409481 40.163888,19.8071861 C40.0977383,19.7734682 40.0426136,19.7282606 40.0426136,19.7077559 C40.0426136,19.6859697 40.0139487,19.6702376 39.9742589,19.6702376 C39.9361126,19.6702376 39.8640094,19.6311726 39.8110897,19.581811 C39.7581699,19.5324937 39.6909618,19.4934728 39.6589454,19.4934728 C39.6280755,19.4934728 39.6016156,19.4730565 39.6016156,19.4492375 C39.6016156,19.4249323 39.5619258,19.4050905 39.5134161,19.4050905 C39.4649063,19.4050905 39.4252165,19.3851602 39.4252165,19.3608993 C39.4252165,19.3365499 39.3855266,19.3166639 39.3370169,19.3166639 C39.2885071,19.3166639 39.2488173,19.2967779 39.2488173,19.2724727 C39.2488173,19.2482118 39.2091275,19.2283257 39.1606177,19.2283257 C39.1121079,19.2283257 39.0724181,19.2084397 39.0724181,19.1840903 C39.0724181,19.1597852 39.0327283,19.1399433 38.9842185,19.1399433 C38.9357087,19.1399433 38.8960189,19.1200131 38.8960189,19.095708 C38.8960189,19.0714028 38.8563291,19.0515168 38.8078193,19.0515168 C38.7593096,19.0515168 38.7196197,19.0316308 38.7196197,19.0073698 C38.7196197,18.9837717 38.6887499,18.9631786 38.6534701,18.9631786 C38.6170877,18.9631786 38.5476305,18.9432926 38.4991208,18.9189432 C38.450611,18.8946381 38.3712314,18.854866 38.3227216,18.830605 C38.2742118,18.8062557 38.2047546,18.7863697 38.1683723,18.7863697 C38.1330925,18.7863697 38.1022226,18.7657766 38.1022226,18.7422227 C38.1022226,18.7171663 38.0448929,18.6979873 37.9699232,18.6979873 C37.8949536,18.6979873 37.8376239,18.6788525 37.8376239,18.6537961 C37.8376239,18.6303748 37.7869091,18.6096491 37.7295794,18.6096491 C37.6722496,18.6096491 37.6090987,18.5888793 37.595075,18.5654579 C37.5807426,18.5414621 37.5090804,18.5212225 37.4385207,18.5212225 C37.367961,18.5212225 37.3084263,18.5010272 37.3084263,18.4770755 C37.3084263,18.4530797 37.2488916,18.4328844 37.1783319,18.4328844 C37.1077723,18.4328844 37.0361101,18.4126448 37.0217777,18.388649 C37.0070042,18.3639903 36.9291681,18.3444578 36.8453785,18.3444578 C36.7615889,18.3444578 36.6837527,18.3249695 36.6689793,18.3003108 C36.6541618,18.2755195 36.5697548,18.2560754 36.4771452,18.2560754 C36.3845356,18.2560754 36.2933372,18.2386199 36.2698762,18.2163034 C36.2470325,18.1946497 36.1177319,18.1645113 35.9854325,18.1500166 C35.8520306,18.1354335 35.5841243,18.102953 35.3900852,18.077764 C34.9402673,18.0194758 33.1956795,17.9729867 33.1498157,18.0181059 L33.1498157,18.0181059 Z M35.1475364,22.5423996 C35.231326,22.5641416 35.3623465,22.5925124 35.434185,22.6044882 C35.5076994,22.6167733 35.654684,22.6481933 35.7649335,22.6752383 C35.875183,22.7022391 36.0271068,22.7346312 36.1067069,22.7481537 C36.1860865,22.7615879 36.2500312,22.7901796 36.2500312,22.8121868 C36.2500312,22.8340614 36.2897211,22.852003 36.3382308,22.852003 C36.3867406,22.852003 36.461137,22.8699005 36.5036051,22.8917309 C36.5468229,22.9140033 36.6292895,22.9511239 36.6910292,22.9760919 C36.9820878,23.0938172 37.6876846,23.452959 37.7494243,23.5148266 C37.7614635,23.5268908 37.8265989,23.565072 37.8927486,23.5987899 C37.9588983,23.632552 38.014023,23.6777595 38.014023,23.6982201 C38.014023,23.7184596 38.0404829,23.7358268 38.0713528,23.7358268 C38.1026195,23.7358268 38.2168821,23.8161663 38.3227216,23.9125915 C38.4285611,24.0089725 38.532813,24.0893121 38.5520405,24.0893121 C38.6040342,24.0893121 39.4722268,24.9687609 39.5991461,25.1499005 C39.6579311,25.233908 39.7437493,25.3439882 39.7868348,25.3907425 C39.8315961,25.439397 39.8662144,25.4981271 39.8662144,25.5255698 C39.8662144,25.5522613 39.9059042,25.6019764 39.954414,25.6360478 C40.0029238,25.6700308 40.0426136,25.7247395 40.0426136,25.7575735 C40.0426136,25.7908495 40.0815978,25.8591691 40.1308132,25.9121985 C40.1800286,25.9652279 40.2190128,26.0326195 40.2190128,26.0646581 C40.2190128,26.0956361 40.2393869,26.1221508 40.2631126,26.1221508 C40.2873675,26.1221508 40.3072124,26.1619229 40.3072124,26.210489 C40.3072124,26.2590993 40.3270573,26.2989156 40.3513122,26.2989156 C40.375567,26.2989156 40.3954119,26.3386435 40.3954119,26.387298 C40.3954119,26.4358641 40.4152569,26.4756361 40.4395117,26.4756361 C40.4637666,26.4756361 40.4836115,26.5154082 40.4836115,26.5640627 C40.4836115,26.612673 40.5034564,26.6524451 40.5277113,26.6524451 C40.5519662,26.6524451 40.5718111,26.6922171 40.5718111,26.7407833 C40.5718111,26.7893936 40.591656,26.8292098 40.6159109,26.8292098 C40.6407832,26.8292098 40.6600107,26.8667281 40.6600107,26.9153384 C40.6600107,26.9639929 40.6792382,27.0130893 40.7041105,27.0280702 C40.7275275,27.042123 40.7482103,27.1053605 40.7482103,27.1628533 C40.7482103,27.2202576 40.7688931,27.2710775 40.7923101,27.2710775 C40.8157271,27.2710775 40.8364099,27.3219416 40.8364099,27.3793459 C40.8364099,27.4367944 40.8570927,27.5000762 40.8805097,27.5141732 C40.9044118,27.5285354 40.9246095,27.600346 40.9246095,27.6710077 C40.9246095,27.7417136 40.9448072,27.8013717 40.9687093,27.8013717 C40.9927437,27.8013717 41.0128091,27.8676585 41.0128091,27.9472027 C41.0128091,28.0267468 41.0298757,28.111152 41.0504262,28.1328056 C41.1341717,28.221409 41.2495368,29.2508868 41.2485225,29.9004973 C41.2474641,30.5677842 41.1965729,31.1946804 41.1406985,31.2286192 C41.1190455,31.2417882 41.1010087,31.3410858 41.1010087,31.4471446 C41.1010087,31.5532035 41.0829718,31.6526337 41.0613188,31.665891 C41.0394012,31.6793251 41.008796,31.7653212 40.9929201,31.8581227 C40.9241244,32.2602625 40.9115118,32.3088728 40.8760997,32.3088728 C40.8542703,32.3088728 40.8364099,32.3486448 40.8364099,32.3972551 C40.8364099,32.4458655 40.8185495,32.5204602 40.7967201,32.5630163 C40.7742292,32.6068098 40.7340984,32.6977552 40.7041105,32.7728802 C40.6741227,32.8480052 40.6339918,32.9389949 40.6115009,32.9827884 C40.5888336,33.0270237 40.5718111,33.0885379 40.5718111,33.1264539 C40.5718111,33.1617627 40.5512165,33.1926965 40.5277113,33.1926965 C40.5034564,33.1926965 40.4836115,33.2324686 40.4836115,33.2810789 C40.4836115,33.3296892 40.4637666,33.3694613 40.4395117,33.3694613 C40.4152569,33.3694613 40.3954119,33.4092333 40.3954119,33.4578436 C40.3954119,33.5064539 40.3775515,33.546226 40.3557221,33.546226 C40.3347306,33.546226 40.304831,33.5815789 40.2922184,33.621351 C40.2606871,33.7210021 40.1277262,33.9395276 40.0314122,34.0500055 C39.9890764,34.0986158 39.954414,34.1642397 39.954414,34.1958364 C39.954414,34.2267703 39.9381412,34.253285 39.9191342,34.253285 C39.8994657,34.253285 39.849677,34.3129873 39.8066797,34.3880681 C39.7636824,34.4631931 39.6865518,34.5658934 39.6324855,34.6200718 C39.5800508,34.6726593 39.4795033,34.7924175 39.4136623,34.8807998 C39.2458185,35.1061749 38.902237,35.4513522 38.7196197,35.5780042 C38.6358301,35.6361598 38.5118656,35.7416883 38.448406,35.8088148 C38.3857843,35.8751015 38.3141221,35.9325501 38.2940567,35.9325501 C38.2737267,35.9325501 38.1860122,35.9931804 38.1022226,36.0651236 C38.018433,36.1371111 37.9226483,36.1976972 37.8927486,36.1976972 C37.8618787,36.1976972 37.8376239,36.2171855 37.8376239,36.2418884 C37.8376239,36.2657074 37.811164,36.2860796 37.7802941,36.2860796 C37.7482777,36.2860796 37.6810696,36.3251446 37.6281498,36.3744619 C37.5752301,36.4238235 37.5031269,36.4628443 37.4649806,36.4628443 C37.4252908,36.4628443 37.3966259,36.4814046 37.3966259,36.5070355 C37.3966259,36.5313407 37.3569361,36.5512267 37.3084263,36.5512267 C37.2599165,36.5512267 37.2202267,36.5711127 37.2202267,36.5954179 C37.2202267,36.6197672 37.1805369,36.6396091 37.1320271,36.6396091 C37.0835174,36.6396091 37.0438276,36.6594951 37.0438276,36.6838002 C37.0438276,36.7081054 37.0041377,36.7279914 36.955628,36.7279914 C36.9071182,36.7279914 36.8674284,36.7478775 36.8674284,36.7721826 C36.8674284,36.7964878 36.8277386,36.8163738 36.7792288,36.8163738 C36.730719,36.8163738 36.6513394,36.8362598 36.6028296,36.860565 C36.5543198,36.8849143 36.4749402,36.9246422 36.4264304,36.9489474 C36.3779207,36.9732525 36.2995112,36.9931386 36.2522362,36.9931386 C36.2037265,36.9931386 36.1547316,37.0124059 36.1397818,37.0373739 C36.1251847,37.0617233 36.0559921,37.0815209 35.9854325,37.0815209 C35.9148728,37.0815209 35.8456802,37.1013628 35.8310832,37.1257121 C35.8162657,37.1504592 35.7318587,37.1699475 35.6392491,37.1699475 C35.5466395,37.1699475 35.4564113,37.1868727 35.434185,37.2084822 C35.3632726,37.2774205 34.9049875,37.3113151 34.0450415,37.3113151 C33.1850955,37.3113151 32.7268104,37.2774205 32.655898,37.2084822 C32.6339804,37.1871821 32.5412385,37.1699475 32.4486289,37.1699475 C32.3560194,37.1699475 32.2810497,37.1501498 32.2810497,37.1257121 C32.2810497,37.1016279 32.2369499,37.0815209 32.1840302,37.0815209 C32.0439251,37.0815209 31.5357632,36.9092637 31.2535245,36.76604 C31.2138347,36.7459331 31.1474204,36.7279914 31.1124052,36.7279914 C31.0771253,36.7279914 31.0462555,36.7073983 31.0462555,36.6838002 C31.0462555,36.6594951 31.0065657,36.6396091 30.9580559,36.6396091 C30.9095461,36.6396091 30.8698563,36.6197672 30.8698563,36.5954179 C30.8698563,36.5711127 30.8301665,36.5512267 30.7816567,36.5512267 C30.7331469,36.5512267 30.6934571,36.5333734 30.6934571,36.5114546 C30.6934571,36.4904196 30.6581773,36.4605022 30.6184875,36.4478635 C30.5190424,36.4162226 30.3009689,36.2829862 30.1907195,36.1865168 C30.1422097,36.1440491 30.0806905,36.109359 30.0540101,36.109359 C30.0273297,36.109359 29.9777174,36.0695428 29.9437606,36.0209324 C29.9098038,35.9723221 29.8601915,35.9325501 29.8335111,35.9325501 C29.7188517,35.9325501 28.4007088,34.6400462 28.400356,34.5272703 C28.4003119,34.5104777 28.3397629,34.4256306 28.2679684,34.3416674 C28.1961739,34.2577041 28.135669,34.1708684 28.135669,34.1516453 C28.135669,34.131936 28.0966848,34.0743107 28.0474694,34.0212813 C27.9982541,33.9682518 27.9592698,33.9009045 27.9592698,33.8688217 C27.9592698,33.8378878 27.9389398,33.8113731 27.91517,33.8113731 C27.8909152,33.8113731 27.8710703,33.7716011 27.8710703,33.7230349 C27.8710703,33.6743804 27.8532098,33.6346084 27.8313804,33.6346084 C27.8087131,33.6346084 27.7812831,33.601465 27.7674357,33.5572738 C27.753853,33.5140106 27.7137222,33.4313289 27.6762815,33.3694613 C27.5745873,33.2015347 27.4300723,32.8721336 27.4300723,32.8082332 C27.4300723,32.7772994 27.4097423,32.7507846 27.3859725,32.7507846 C27.3625555,32.7507846 27.3418727,32.6999648 27.3418727,32.6425162 C27.3418727,32.5850677 27.3211899,32.5218301 27.2977729,32.5077331 C27.2738708,32.493371 27.2536731,32.4326081 27.2536731,32.3751596 C27.2536731,32.317711 27.2334754,32.2569481 27.2095733,32.242586 C27.1856712,32.2282239 27.1654735,32.1564132 27.1654735,32.0857073 C27.1654735,32.0150014 27.1452758,31.9553433 27.1213737,31.9553433 C27.0970748,31.9553433 27.0772739,31.8868469 27.0772739,31.8029279 C27.0772739,31.7189204 27.0574731,31.6385367 27.0331742,31.6239536 C27.0090516,31.6094147 26.9890744,31.5024278 26.9890744,31.3874865 C26.9890744,31.2726336 26.9721841,31.1595926 26.9517218,31.1378505 C26.9035649,31.0865887 26.8469407,30.4352107 26.8461028,29.9225487 C26.8451326,29.374578 26.9677301,28.2974178 27.0397009,28.2212322 C27.060516,28.1991808 27.0772739,28.1173829 27.0772739,28.0378388 C27.0772739,27.9582946 27.0969425,27.8823742 27.1213737,27.8676585 C27.1457168,27.8530312 27.1654735,27.7836953 27.1654735,27.7130336 C27.1654735,27.6422835 27.1852302,27.5729917 27.2095733,27.5583644 C27.2344456,27.5433836 27.2536731,27.4942872 27.2536731,27.4456327 C27.2536731,27.3970224 27.2709602,27.3257862 27.2933629,27.2821695 C27.3158538,27.2383318 27.3559847,27.1473422 27.3859725,27.0722172 C27.4159604,26.9971363 27.4560912,26.9061467 27.4785821,26.8623532 C27.5012494,26.818162 27.5182719,26.7566037 27.5182719,26.7187319 C27.5182719,26.6833347 27.5388665,26.6524451 27.5623717,26.6524451 C27.5866266,26.6524451 27.6064715,26.612673 27.6064715,26.5640627 C27.6064715,26.5154082 27.6263164,26.4756361 27.6505713,26.4756361 C27.6748262,26.4756361 27.6946711,26.4358641 27.6946711,26.387298 C27.6946711,26.3386435 27.7125315,26.2989156 27.7343609,26.2989156 C27.7553965,26.2989156 27.7851198,26.2635184 27.7976,26.2237464 C27.8308071,26.1176875 27.9736464,25.8819717 28.0165996,25.8623067 C28.032696,25.8549267 28.0474694,25.8238603 28.0474694,25.7973456 C28.0474694,25.7697261 28.1079302,25.6757757 28.1797688,25.5918566 C28.2516074,25.5078492 28.3120682,25.4189807 28.3120682,25.3973712 C28.3120682,25.3752756 28.347348,25.3261792 28.3914478,25.2869374 C28.4345333,25.2485353 28.5198223,25.1454814 28.5779459,25.0615624 C28.7126266,24.8670769 29.4948247,24.0893121 29.5556824,24.0893121 C29.580687,24.0893121 29.6532753,24.0318635 29.7232616,23.9567385 C29.793248,23.8816577 29.86394,23.8241649 29.8864309,23.8241649 C29.9088336,23.8241649 29.9636055,23.7904913 30.0121153,23.7468304 C30.0590375,23.704672 30.1532346,23.6413902 30.2193843,23.6076281 C30.285534,23.5739103 30.3406588,23.5287027 30.3406588,23.508198 C30.3406588,23.4875607 30.3803486,23.4706796 30.4288583,23.4706796 C30.4773681,23.4706796 30.5170579,23.455743 30.5170579,23.4375362 C30.5170579,23.4198156 30.5633627,23.3816786 30.6162825,23.3557384 C30.6714072,23.3287375 30.8037066,23.2619647 30.9139561,23.2055325 C31.0242056,23.1490562 31.1467148,23.0871885 31.1895798,23.0663303 C31.2336796,23.0448534 31.2951106,23.0287236 31.3329041,23.0287236 C31.368184,23.0287236 31.3990538,23.0081305 31.3990538,22.9845766 C31.3990538,22.9596086 31.4365387,22.9403854 31.4850484,22.9403854 C31.5335582,22.9403854 31.5825972,22.921118 31.5975029,22.89615 C31.6118353,22.8722426 31.6724726,22.852003 31.7298023,22.852003 C31.787132,22.852003 31.8467549,22.8337521 31.8598967,22.8121868 C31.8731266,22.7905331 31.9392763,22.7614111 32.005426,22.7481537 C32.0728105,22.7346312 32.2149,22.7021065 32.3251495,22.6750173 C32.7496982,22.5705494 32.9822365,22.5344893 33.4276444,22.5039974 C33.9877118,22.4656837 34.933035,22.4867629 35.1475364,22.5423996 Z M2.09474025,18.0644182 C1.97126082,18.0752451 1.85580756,18.1022017 1.83234647,18.1257114 C1.81016427,18.1479396 1.75517183,18.1676931 1.71548201,18.1676931 C1.6101717,18.1676931 1.11131483,18.4281559 0.952555566,18.5660324 C0.687956797,18.7958266 0.352798358,19.1856812 0.352798358,19.2636345 C0.352798358,19.2946125 0.334408743,19.3166639 0.308698563,19.3166639 C0.283826279,19.3166639 0.264598768,19.3542706 0.264598768,19.4028367 C0.264598768,19.451447 0.245371258,19.5005876 0.220498974,19.5155242 C0.197081983,19.5296212 0.176399179,19.592903 0.176399179,19.6503074 C0.176399179,19.7077559 0.155716375,19.75862 0.132299384,19.75862 C0.108000397,19.75862 0.0881995894,19.8270721 0.0881995894,19.9110796 C0.0881995894,19.9949986 0.0683987816,20.0754266 0.0440997947,20.0900539 C0.0195803088,20.1047695 0,20.3109656 0,20.5540171 C0,20.7971128 0.0195803088,21.0033089 0.0440997947,21.0180688 C0.0687515799,21.0328728 0.0881995894,21.1108703 0.0881995894,21.1948335 C0.0881995894,21.2787526 0.107647599,21.35675 0.132299384,21.3715541 C0.155716375,21.3856511 0.176399179,21.4489329 0.176399179,21.5063372 C0.176399179,21.5637857 0.197081983,21.6146498 0.220498974,21.6146498 C0.243915965,21.6146498 0.264598768,21.6654255 0.264598768,21.722874 C0.264598768,21.7803668 0.285281572,21.8436043 0.308698563,21.8576571 C0.333570847,21.8726379 0.352798358,21.9217344 0.352798358,21.9703447 C0.352798358,22.0189992 0.372025868,22.0565617 0.396898152,22.0565617 C0.420315143,22.0565617 0.440997947,22.1073373 0.440997947,22.1648301 C0.440997947,22.2222786 0.461680751,22.2855162 0.485097742,22.299569 C0.509970026,22.3145498 0.529197536,22.3636904 0.529197536,22.4122565 C0.529197536,22.4608668 0.548425047,22.4984293 0.573297331,22.4984293 C0.596714322,22.4984293 0.617397126,22.5492934 0.617397126,22.6066977 C0.617397126,22.6641463 0.63807993,22.7274281 0.661496921,22.7415251 C0.686369205,22.7564617 0.705596715,22.8055581 0.705596715,22.8542126 C0.705596715,22.9027787 0.720987544,22.9403854 0.740876551,22.9403854 C0.760633259,22.9403854 0.80332186,23.0375618 0.837896099,23.1612971 C0.872470338,23.2850767 0.91515894,23.3822973 0.934915648,23.3822973 C0.954804655,23.3822973 0.970195483,23.4198156 0.970195483,23.4684259 C0.970195483,23.5170804 0.989422994,23.5661768 1.01429528,23.5811576 C1.03771227,23.5952104 1.05839507,23.658448 1.05839507,23.7159407 C1.05839507,23.7733451 1.07907788,23.8241649 1.10249487,23.8241649 C1.12736715,23.8241649 1.14659466,23.8617716 1.14659466,23.9103378 C1.14659466,23.9589481 1.16582217,24.0080887 1.19069446,24.0230253 C1.21411145,24.0371223 1.23479425,24.100404 1.23479425,24.1578084 C1.23479425,24.2152569 1.25547706,24.266121 1.27889405,24.266121 C1.30239924,24.266121 1.32299384,24.2970106 1.32299384,24.3324078 C1.32299384,24.3702796 1.34001636,24.4318379 1.36268366,24.4760291 C1.38490995,24.5192923 1.42120408,24.6019298 1.44510617,24.6638417 C1.52038452,24.8582387 1.59680947,25.039069 1.63751358,25.1189667 C1.65775538,25.1587388 1.6757922,25.2252907 1.6757922,25.2604227 C1.6757922,25.2957315 1.6963868,25.3267095 1.71989199,25.3267095 C1.74330898,25.3267095 1.76399179,25.3774852 1.76399179,25.4349337 C1.76399179,25.4924264 1.78467459,25.555664 1.80809158,25.569761 C1.83296387,25.5846976 1.85219138,25.633794 1.85219138,25.6824043 C1.85219138,25.7310588 1.87141889,25.7685772 1.89629117,25.7685772 C1.91970816,25.7685772 1.94039097,25.819397 1.94039097,25.8768898 C1.94039097,25.9343383 1.96107377,25.9975759 1.98449076,26.0116287 C2.00936305,26.0266095 2.02859056,26.0757501 2.02859056,26.1243162 C2.02859056,26.1729265 2.04398138,26.210489 2.06387039,26.210489 C2.0836271,26.210489 2.1263157,26.3077538 2.16088994,26.4314891 C2.19546418,26.5551803 2.234272,26.6524451 2.24908953,26.6524451 C2.26390706,26.6524451 2.30271488,26.7496215 2.33728912,26.8733568 C2.37186336,26.9971363 2.41455196,27.0943569 2.43430867,27.0943569 C2.45419768,27.0943569 2.4695885,27.1318753 2.4695885,27.1804856 C2.4695885,27.2291401 2.48881601,27.2782365 2.5136883,27.2932173 C2.53710529,27.3072701 2.55778809,27.3705077 2.55778809,27.4280004 C2.55778809,27.4854048 2.5784709,27.5362246 2.60188789,27.5362246 C2.62539308,27.5362246 2.64598768,27.5672026 2.64598768,27.6025114 C2.64598768,27.6404274 2.6630102,27.7019416 2.6856775,27.7461769 C2.7073305,27.7883353 2.74741721,27.8787505 2.77387709,27.9450373 C2.80033696,28.0113241 2.84443676,28.121802 2.87089664,28.1880888 C2.89735651,28.2543314 2.93744323,28.3447466 2.95909622,28.3869492 C2.98176352,28.4310961 2.99878604,28.4926545 2.99878604,28.5305263 C2.99878604,28.5658793 3.01938064,28.5968131 3.04288583,28.5968131 C3.06630283,28.5968131 3.08698563,28.6476772 3.08698563,28.7050815 C3.08698563,28.76253 3.10766843,28.8258118 3.13108542,28.8399088 C3.15595771,28.8548454 3.17518522,28.9039418 3.17518522,28.9525963 C3.17518522,29.0011625 3.19441273,29.0387692 3.21928501,29.0387692 C3.242702,29.0387692 3.26338481,29.0895448 3.26338481,29.1469934 C3.26338481,29.2044861 3.28406761,29.2677237 3.3074846,29.2818207 C3.33235689,29.2967573 3.3515844,29.3458537 3.3515844,29.394464 C3.3515844,29.4431185 3.36697523,29.480681 3.38686423,29.480681 C3.40662094,29.480681 3.44930954,29.5778574 3.48388378,29.701637 C3.51845802,29.8253281 3.55726584,29.9225487 3.57208337,29.9225487 C3.5869009,29.9225487 3.62570872,30.0198135 3.66028296,30.1435488 C3.6948572,30.26724 3.7375458,30.3645048 3.75730251,30.3645048 C3.77719152,30.3645048 3.79258234,30.4020673 3.79258234,30.4506776 C3.79258234,30.4992437 3.81180985,30.5483843 3.83668214,30.5633651 C3.86009913,30.5774179 3.88078193,30.6406997 3.88078193,30.698104 C3.88078193,30.7555968 3.90146474,30.8064166 3.92488173,30.8064166 C3.94838692,30.8064166 3.96898152,30.8373063 3.96898152,30.8727034 C3.96898152,30.9077912 3.98701834,30.9743431 4.00726015,31.0141152 C4.04796426,31.0940129 4.1244333,31.274799 4.19966755,31.4692844 C4.22356964,31.5311521 4.25986377,31.6137454 4.28209007,31.657097 C4.30475736,31.7012881 4.32177988,31.7628023 4.32177988,31.8007183 C4.32177988,31.8360271 4.34237449,31.8670051 4.36587968,31.8670051 C4.38929667,31.8670051 4.40997947,31.9177808 4.40997947,31.9752293 C4.40997947,32.0326779 4.43066227,32.0959596 4.45407926,32.1100124 C4.47895155,32.1249932 4.49817906,32.1740897 4.49817906,32.2227 C4.49817906,32.2713103 4.51740657,32.3088728 4.54227885,32.3088728 C4.56569585,32.3088728 4.58637865,32.3596926 4.58637865,32.4171412 C4.58637865,32.4745897 4.60706145,32.5378715 4.63047844,32.5519243 C4.65535073,32.5669051 4.67457824,32.6160015 4.67457824,32.6646118 C4.67457824,32.7132221 4.68996907,32.7507846 4.70985807,32.7507846 C4.72961478,32.7507846 4.77230338,32.8480052 4.80687762,32.9717406 C4.84145186,33.0954759 4.88025968,33.1926965 4.89507721,33.1926965 C4.90989474,33.1926965 4.94870256,33.2899171 4.9832768,33.4136524 C5.01785104,33.5373878 5.06053964,33.6346084 5.08029635,33.6346084 C5.10018536,33.6346084 5.11557619,33.6721709 5.11557619,33.7207812 C5.11557619,33.7693915 5.1348037,33.8185321 5.15967598,33.8334687 C5.18309297,33.8475657 5.20377577,33.9108033 5.20377577,33.9682518 C5.20377577,34.0257004 5.22445858,34.0765202 5.24787557,34.0765202 C5.27138076,34.0765202 5.29197536,34.1074541 5.29197536,34.142807 C5.29197536,34.1807231 5.30899789,34.2422372 5.33166518,34.2864284 C5.35389148,34.3297799 5.39018561,34.4124174 5.4140877,34.4742409 C5.48936605,34.6686821 5.56579099,34.8495125 5.6064951,34.9294101 C5.62673691,34.9691822 5.64477372,35.0357341 5.64477372,35.0708219 C5.64477372,35.1061749 5.66536833,35.1371087 5.68887352,35.1371087 C5.71229051,35.1371087 5.73297331,35.1879286 5.73297331,35.2453771 C5.73297331,35.3028257 5.75365612,35.3661074 5.77707311,35.3802044 C5.80194539,35.3951411 5.8211729,35.4442375 5.8211729,35.4928478 C5.8211729,35.5414581 5.84040041,35.5790648 5.8652727,35.5790648 C5.88868969,35.5790648 5.90937249,35.6298404 5.90937249,35.687289 C5.90937249,35.7447817 5.93005529,35.8080193 5.95347228,35.8220721 C5.97834457,35.8370529 5.99757208,35.8861493 5.99757208,35.9347596 C5.99757208,35.9833699 6.01296291,36.0209324 6.03285192,36.0209324 C6.05260862,36.0209324 6.09529722,36.1181531 6.12987146,36.2418884 C6.1644457,36.3656237 6.20325352,36.4628443 6.21807105,36.4628443 C6.23288858,36.4628443 6.2716964,36.5600649 6.30627064,36.6838002 C6.34084488,36.8075356 6.38353348,36.9048004 6.40329019,36.9048004 C6.4231792,36.9048004 6.43857003,36.9423187 6.43857003,36.990929 C6.43857003,37.0395393 6.45779754,37.0886799 6.48266982,37.1036165 C6.50608681,37.1177135 6.52676962,37.1809511 6.52676962,37.2383996 C6.52676962,37.2958482 6.54745242,37.346668 6.57086941,37.346668 C6.5943746,37.346668 6.61496921,37.3776019 6.61496921,37.4129548 C6.61496921,37.4508709 6.63199173,37.512385 6.65465902,37.5565762 C6.67688532,37.5998835 6.71317945,37.6825211 6.73708154,37.7443887 C6.81235989,37.9388299 6.88878483,38.1196603 6.92948894,38.199558 C6.94973075,38.23933 6.96776756,38.3058819 6.96776756,38.3409697 C6.96776756,38.3763669 6.98836217,38.4072565 7.01186736,38.4072565 C7.03528435,38.4072565 7.05596715,38.4580764 7.05596715,38.5155249 C7.05596715,38.5729735 7.07664996,38.6362553 7.10006695,38.6503081 C7.12493923,38.6652889 7.14416674,38.7143853 7.14416674,38.7629956 C7.14416674,38.8116059 7.16339425,38.8491684 7.18826654,38.8491684 C7.21168353,38.8491684 7.23236633,38.8999883 7.23236633,38.9574368 C7.23236633,39.0148853 7.25304913,39.0781671 7.27646613,39.0922641 C7.30133841,39.1072007 7.32056592,39.1562971 7.32056592,39.2049516 C7.32056592,39.2535178 7.33595675,39.2911245 7.35584576,39.2911245 C7.37560246,39.2911245 7.41829107,39.3883009 7.4528653,39.5120362 C7.48743954,39.6358157 7.53012815,39.7329921 7.54988485,39.7329921 C7.57034716,39.7329921 7.58516469,39.7617164 7.58516469,39.8015327 C7.58516469,39.8394929 7.62450171,39.9517385 7.67336428,40.0534224 C7.72222685,40.155018 7.76156387,40.2624025 7.76156387,40.2942202 C7.76156387,40.325154 7.77986528,40.3516687 7.80125368,40.3516687 C7.82224519,40.3516687 7.85223305,40.3870217 7.86488969,40.4267938 C7.90153662,40.5416908 8.04005407,40.7611001 8.12759216,40.842898 C8.16728198,40.8799744 8.20256181,40.9316339 8.20256181,40.9526689 C8.20256181,41.0160832 8.53331027,41.3500802 8.68324958,41.4381091 C8.75821923,41.4820793 8.81995894,41.5343133 8.81995894,41.553669 C8.81995894,41.5729806 8.84200884,41.589022 8.86846871,41.589022 C8.89594289,41.589022 8.96769325,41.6245075 9.03384294,41.6708199 C9.09730255,41.7151878 9.22126707,41.7778067 9.30505668,41.8077683 C9.38884629,41.8377742 9.49971318,41.8797116 9.54760555,41.8995534 C9.73780797,41.9783463 9.97096358,42 10.6280505,42 C11.2851375,42 11.5182931,41.9783463 11.7084955,41.8995534 C11.7563879,41.8797116 11.8672548,41.8377742 11.9510444,41.8077683 C12.034834,41.7778067 12.1587985,41.7151878 12.2222581,41.6708199 C12.2884078,41.6245075 12.3601582,41.589022 12.3876323,41.589022 C12.4140922,41.589022 12.4371564,41.573997 12.4383471,41.5558786 C12.4395819,41.5374508 12.5353666,41.4551669 12.6544361,41.3702756 C12.7735055,41.2854285 12.900557,41.1620025 12.9410848,41.0918711 C12.9819212,41.0211652 13.055656,40.9233259 13.1092373,40.8687056 C13.2279098,40.7477102 13.3236064,40.5903011 13.4773383,40.2632864 C13.5396513,40.1307128 13.6095935,39.9851028 13.6312465,39.9429003 C13.6539138,39.8987091 13.6709364,39.8371949 13.6709364,39.7992789 C13.6709364,39.763926 13.691531,39.7329921 13.7150362,39.7329921 C13.7384531,39.7329921 13.7591359,39.6822165 13.7591359,39.6247237 C13.7591359,39.5672752 13.7798188,39.5040376 13.8032357,39.4899406 C13.828108,39.475004 13.8473355,39.4258634 13.8473355,39.3772531 C13.8473355,39.3286428 13.8627264,39.2911245 13.8826154,39.2911245 C13.9023721,39.2911245 13.9450607,39.1938596 13.9796349,39.0701243 C14.0142092,38.946389 14.053017,38.8491684 14.0678345,38.8491684 C14.082652,38.8491684 14.1214599,38.7519478 14.1560341,38.6282567 C14.1906083,38.5044771 14.2332969,38.4072565 14.2530536,38.4072565 C14.2729427,38.4072565 14.2883335,38.369694 14.2883335,38.3210837 C14.2883335,38.2724734 14.307561,38.223377 14.3324333,38.2083962 C14.3558503,38.1943434 14.3765331,38.1311058 14.3765331,38.0736131 C14.3765331,38.0161645 14.3972159,37.9653889 14.4206329,37.9653889 C14.4455052,37.9653889 14.4647327,37.9277822 14.4647327,37.879216 C14.4647327,37.8305615 14.4839602,37.7814651 14.5088325,37.7664843 C14.5322494,37.7524315 14.5529323,37.6891497 14.5529323,37.6317012 C14.5529323,37.5742527 14.5736151,37.5234328 14.597032,37.5234328 C14.6205372,37.5234328 14.6411318,37.492499 14.6411318,37.457146 C14.6411318,37.4192742 14.6581544,37.3577158 14.6808217,37.3135247 C14.703048,37.2702173 14.7393421,37.1875798 14.7632442,37.1257121 C14.8384784,36.9312709 14.9149475,36.7504847 14.9556516,36.6705429 C14.9758934,36.6307708 14.9939302,36.5642631 14.9939302,36.5291311 C14.9939302,36.4937781 15.0145248,36.4628443 15.03803,36.4628443 C15.061447,36.4628443 15.0821298,36.4120245 15.0821298,36.3546201 C15.0821298,36.2971274 15.1028126,36.2338898 15.1262296,36.2197928 C15.1511019,36.2048562 15.1703294,36.1557598 15.1703294,36.1071053 C15.1703294,36.058495 15.1857202,36.0209324 15.2056092,36.0209324 C15.2253659,36.0209324 15.2680545,35.923756 15.3026288,35.7999765 C15.337203,35.6762412 15.3760108,35.5790648 15.3908284,35.5790648 C15.4056459,35.5790648 15.4444537,35.4818 15.4790279,35.3580646 C15.5136022,35.2343293 15.5562908,35.1371087 15.5760475,35.1371087 C15.5959365,35.1371087 15.6113273,35.0995462 15.6113273,35.0509359 C15.6113273,35.0023256 15.6305548,34.9532292 15.6554271,34.9382484 C15.6788441,34.9241956 15.6995269,34.8609138 15.6995269,34.8034653 C15.6995269,34.7460167 15.7202097,34.6951969 15.7436267,34.6951969 C15.768499,34.6951969 15.7877265,34.6576343 15.7877265,34.609024 C15.7877265,34.5604137 15.806954,34.5113173 15.8318263,34.4963365 C15.8552433,34.4822837 15.8759261,34.4190461 15.8759261,34.3615534 C15.8759261,34.3041048 15.8966089,34.253285 15.9200259,34.253285 C15.9435311,34.253285 15.9641257,34.2223512 15.9641257,34.1869982 C15.9641257,34.1491264 15.9811482,34.0876122 16.0038155,34.0433768 C16.0254685,34.0012185 16.0655552,33.9108033 16.0920151,33.8445165 C16.118475,33.7782297 16.1625748,33.6677518 16.1890346,33.601465 C16.2154945,33.5351782 16.2555812,33.4448072 16.2772342,33.4026046 C16.2999015,33.3584135 16.316924,33.2968993 16.316924,33.2590275 C16.316924,33.2236303 16.3375186,33.1926965 16.3610238,33.1926965 C16.3844408,33.1926965 16.4051236,33.1418766 16.4051236,33.0844281 C16.4051236,33.0270237 16.4258064,32.963742 16.4492234,32.949645 C16.4740957,32.9347084 16.4933232,32.8855678 16.4933232,32.8369575 C16.4933232,32.7883471 16.5125507,32.7507846 16.537423,32.7507846 C16.56084,32.7507846 16.5815228,32.6999648 16.5815228,32.6425162 C16.5815228,32.5850677 16.6022056,32.5218301 16.6256226,32.5077331 C16.6504949,32.4927965 16.6697224,32.4436559 16.6697224,32.3950456 C16.6697224,32.3464353 16.6851132,32.3088728 16.7050022,32.3088728 C16.7247589,32.3088728 16.7674475,32.2116522 16.8020218,32.0879168 C16.836596,31.9641815 16.8792846,31.8670051 16.8990413,31.8670051 C16.9189303,31.8670051 16.9343212,31.8293984 16.9343212,31.7807881 C16.9343212,31.7321778 16.9535487,31.6830814 16.978421,31.6681448 C17.001838,31.6540478 17.0225208,31.5908102 17.0225208,31.5333174 C17.0225208,31.4758689 17.0432036,31.4250932 17.0666205,31.4250932 C17.0914928,31.4250932 17.1107203,31.3874865 17.1107203,31.3389204 C17.1107203,31.2902659 17.1299479,31.2411695 17.1548201,31.2262329 C17.1782371,31.2121359 17.1989199,31.1488541 17.1989199,31.0914056 C17.1989199,31.0340012 17.2196027,30.9831372 17.2430197,30.9831372 C17.2665249,30.9831372 17.2871195,30.9522033 17.2871195,30.9168504 C17.2871195,30.8789785 17.304142,30.8174202 17.3268093,30.7732732 C17.3484623,30.7310706 17.3885491,30.6406997 17.4150089,30.5744129 C17.4414688,30.5081261 17.4855686,30.3976481 17.5120285,30.3313614 C17.5384884,30.2650746 17.5785751,30.1746594 17.6002281,30.132501 C17.6228954,30.0882656 17.6399179,30.0267515 17.6399179,29.9888355 C17.6399179,29.9535267 17.6605125,29.9225487 17.6840177,29.9225487 C17.7074347,29.9225487 17.7281175,29.871773 17.7281175,29.8143245 C17.7281175,29.7568317 17.7488003,29.6935942 17.7722173,29.6795414 C17.7970895,29.6645605 17.8163171,29.6154641 17.8163171,29.5668096 C17.8163171,29.5181993 17.8355446,29.480681 17.8604169,29.480681 C17.8838338,29.480681 17.9045166,29.4298612 17.9045166,29.3723684 C17.9045166,29.3149641 17.9251995,29.2516823 17.9486164,29.2376295 C17.9734887,29.2226487 17.9927162,29.1735081 17.9927162,29.124942 C17.9927162,29.0762875 18.0081071,29.0387692 18.0279961,29.0387692 C18.0477528,29.0387692 18.0904414,28.9415044 18.1250156,28.8178132 C18.1595899,28.6940779 18.1983977,28.5968131 18.2132152,28.5968131 C18.2280327,28.5968131 18.2668406,28.4995925 18.3014148,28.3759014 C18.335989,28.2521218 18.3786776,28.1549454 18.3984344,28.1549454 C18.4183234,28.1549454 18.4337142,28.1173829 18.4337142,28.0687284 C18.4337142,28.0201181 18.4529417,27.9710217 18.477814,27.9560851 C18.501231,27.9419881 18.5219138,27.8787505 18.5219138,27.8212578 C18.5219138,27.7638092 18.5425966,27.7130336 18.5660136,27.7130336 C18.5895188,27.7130336 18.6101134,27.6820555 18.6101134,27.6467468 C18.6101134,27.6116148 18.6283707,27.5450629 18.6489212,27.5052908 C18.6942117,27.4176597 18.7833374,27.2047907 18.8302154,27.0722172 C18.8479436,27.0221485 18.8863104,26.9263862 18.9188119,26.8513054 C18.9513135,26.7761362 18.9943108,26.6708286 19.0180365,26.6082097 C19.0414976,26.5463862 19.0773948,26.4637045 19.0996211,26.4204413 C19.1222884,26.376206 19.1393109,26.3146918 19.1393109,26.2767758 C19.1393109,26.241467 19.1599055,26.210489 19.1834107,26.210489 C19.2068277,26.210489 19.2275105,26.1596692 19.2275105,26.1022648 C19.2275105,26.0447721 19.2481933,25.9815345 19.2716103,25.9674817 C19.2964826,25.9525009 19.3157101,25.9034045 19.3157101,25.85475 C19.3157101,25.8061397 19.3311009,25.7685772 19.3509899,25.7685772 C19.3707466,25.7685772 19.4134352,25.6714007 19.4480095,25.5476212 C19.4825837,25.4238859 19.5213915,25.3267095 19.5362091,25.3267095 C19.5510266,25.3267095 19.5898344,25.2294447 19.6244086,25.1057535 C19.6589829,24.9820182 19.7016715,24.8847534 19.7214282,24.8847534 C19.7413172,24.8847534 19.756708,24.8471909 19.756708,24.7985806 C19.756708,24.7500145 19.7759355,24.7008739 19.8008078,24.6858931 C19.8242248,24.6718403 19.8449076,24.6086027 19.8449076,24.5511542 C19.8449076,24.4936614 19.8655904,24.4428857 19.8890074,24.4428857 C19.9138797,24.4428857 19.9331072,24.4053232 19.9331072,24.3566687 C19.9331072,24.3080584 19.9523347,24.258962 19.977207,24.2439812 C20.000624,24.2299284 20.0213068,24.1666908 20.0213068,24.1091981 C20.0213068,24.0517496 20.0419896,24.0009739 20.0654066,24.0009739 C20.0889118,24.0009739 20.1095064,23.9699959 20.1095064,23.9346871 C20.1095064,23.8995551 20.1274991,23.8330032 20.147785,23.7932311 C20.1884891,23.7133334 20.2649141,23.5325031 20.3401924,23.3381061 C20.3640945,23.2761942 20.4003886,23.1935567 20.4226149,23.1502935 C20.4452822,23.1061023 20.4623047,23.044544 20.4623047,23.0066722 C20.4623047,22.971275 20.4828993,22.9403854 20.5064045,22.9403854 C20.5298215,22.9403854 20.5505043,22.8895213 20.5505043,22.8320728 C20.5505043,22.7746684 20.5711871,22.7113867 20.5946041,22.6972897 C20.6194764,22.6823531 20.6387039,22.6332125 20.6387039,22.5846022 C20.6387039,22.536036 20.6579314,22.4984293 20.6828037,22.4984293 C20.7062207,22.4984293 20.7269035,22.4476095 20.7269035,22.3902051 C20.7269035,22.3327124 20.7475863,22.2694748 20.7710033,22.255422 C20.7958756,22.2404412 20.8151031,22.1913448 20.8151031,22.1426903 C20.8151031,22.09408 20.8304939,22.0565617 20.8503829,22.0565617 C20.8701396,22.0565617 20.9128282,21.9593411 20.9474025,21.8355615 C20.9819767,21.7118262 21.0246653,21.6146498 21.044422,21.6146498 C21.0631644,21.6146498 21.0797019,21.5637857 21.0797019,21.5063372 C21.0797019,21.4489329 21.1003847,21.3856511 21.1238017,21.3715541 C21.1481447,21.3569268 21.1679015,21.2875908 21.1679015,21.2169291 C21.1679015,21.146179 21.1876582,21.0768873 21.2120013,21.06226 C21.2376232,21.0468372 21.256101,20.8059511 21.256101,20.4877745 C21.256101,20.169598 21.2376232,19.9286676 21.2120013,19.9132449 C21.1876582,19.8986176 21.1679015,19.8292817 21.1679015,19.75862 C21.1679015,19.6878699 21.1481447,19.6185781 21.1238017,19.6039066 C21.0989294,19.58897 21.0797019,19.5398736 21.0797019,19.4912191 C21.0797019,19.4426088 21.0604744,19.4050905 21.0356021,19.4050905 C21.0113472,19.4050905 20.9915023,19.3652742 20.9915023,19.3166639 C20.9915023,19.2680978 20.9746121,19.2283257 20.9540175,19.2283257 C20.9332023,19.2283257 20.8894995,19.1752963 20.8556749,19.1090095 C20.7745313,18.9499212 20.2511549,18.4328844 20.1712461,18.4328844 C20.1359663,18.4328844 20.1095064,18.4139263 20.1095064,18.388649 C20.1095064,18.3643438 20.0698166,18.3444578 20.0213068,18.3444578 C19.972797,18.3444578 19.9331072,18.3245718 19.9331072,18.3003108 C19.9331072,18.2759615 19.8934174,18.2560754 19.8449076,18.2560754 C19.7963978,18.2560754 19.756708,18.2361894 19.756708,18.2119284 C19.756708,18.1875349 19.6993783,18.1676931 19.6288186,18.1676931 C19.558259,18.1676931 19.4930354,18.1439624 19.4832893,18.1147078 C19.4708532,18.0773221 19.2804302,18.0616342 18.8394323,18.0616342 C18.4160743,18.0616342 18.1960604,18.0788246 18.1602955,18.1147078 C18.1322921,18.1427692 18.0720959,18.1676931 18.0324061,18.1676931 C17.9309765,18.1676931 17.4147443,18.4331937 17.3276913,18.5300608 C17.2880015,18.574252 17.2366694,18.6096491 17.2121499,18.6096491 C17.1388119,18.6096491 16.7391796,19.0736124 16.6298121,19.2857301 C16.5956347,19.3520169 16.5516231,19.4050905 16.530808,19.4050905 C16.5096401,19.4050905 16.4933232,19.4426088 16.4933232,19.4912191 C16.4933232,19.5398736 16.4740957,19.58897 16.4492234,19.6039066 C16.4258064,19.6180036 16.4051236,19.6812412 16.4051236,19.7387339 C16.4051236,19.7961383 16.3844408,19.8469581 16.3610238,19.8469581 C16.3367689,19.8469581 16.316924,19.8867302 16.316924,19.9353847 C16.316924,20.0201876 16.3010922,20.0635391 16.1925626,20.2756568 C16.1631481,20.3331054 16.1405249,20.4156987 16.1405249,20.4656789 C16.1405249,20.5142893 16.12068,20.5540171 16.0964251,20.5540171 C16.0721702,20.5540171 16.0523253,20.5938334 16.0523253,20.6423995 C16.0523253,20.6910098 16.0324804,20.7705539 16.0082255,20.8192084 C15.9839706,20.8677746 15.9442808,20.9473187 15.9200259,20.9959732 C15.895771,21.0445835 15.8759261,21.1241276 15.8759261,21.1726937 C15.8759261,21.221304 15.8560812,21.2610761 15.8318263,21.2610761 C15.8075714,21.2610761 15.7877265,21.3008482 15.7877265,21.3495027 C15.7877265,21.3994387 15.7651033,21.482032 15.7356887,21.5394806 C15.6271592,21.7515983 15.6113273,21.7949498 15.6113273,21.8797969 C15.6113273,21.928363 15.5914824,21.9681351 15.5672275,21.9681351 C15.5429726,21.9681351 15.5231277,22.0079072 15.5231277,22.0565617 C15.5231277,22.1064977 15.5005045,22.189091 15.47109,22.2465396 C15.3625604,22.4586573 15.3467286,22.5019646 15.3467286,22.5868117 C15.3467286,22.6354662 15.3268836,22.6752383 15.3026288,22.6752383 C15.2783739,22.6752383 15.258529,22.7150103 15.258529,22.7635765 C15.258529,22.8135567 15.2359058,22.89615 15.2064912,22.9536428 C15.0979616,23.1657605 15.0821298,23.2090236 15.0821298,23.2938707 C15.0821298,23.342481 15.0622849,23.3822973 15.03803,23.3822973 C15.0137751,23.3822973 14.9939302,23.4220251 14.9939302,23.4706796 C14.9939302,23.5192458 14.9740853,23.5987899 14.9498304,23.6474444 C14.9255755,23.6960547 14.8858857,23.7755988 14.8616308,23.8241649 C14.8373759,23.8727752 14.817531,23.9523194 14.817531,24.0009739 C14.817531,24.04954 14.7976861,24.0893121 14.7734312,24.0893121 C14.7491763,24.0893121 14.7293314,24.1290841 14.7293314,24.1777386 C14.7293314,24.2263489 14.7094865,24.3058931 14.6852316,24.3544592 C14.6609767,24.4030695 14.6212869,24.4826136 14.597032,24.5312681 C14.5727772,24.5798342 14.5529323,24.6593784 14.5529323,24.7080329 C14.5529323,24.7566432 14.5330873,24.7964152 14.5088325,24.7964152 C14.4845776,24.7964152 14.4647327,24.8361873 14.4647327,24.8847534 C14.4647327,24.9333637 14.4448878,25.0129079 14.4206329,25.0615624 C14.396378,25.1101285 14.3566882,25.1896726 14.3324333,25.2383271 C14.3081784,25.2869374 14.2883335,25.3664815 14.2883335,25.4150477 C14.2883335,25.463658 14.2684886,25.5034742 14.2442337,25.5034742 C14.2199788,25.5034742 14.2001339,25.5432021 14.2001339,25.5918566 C14.2001339,25.6404227 14.180289,25.7199668 14.1560341,25.7685772 C14.1317792,25.8172316 14.0920894,25.8967758 14.0678345,25.9453419 C14.0435796,25.9939522 14.0237347,26.0734963 14.0237347,26.1221508 C14.0237347,26.170717 14.0038898,26.210489 13.9796349,26.210489 C13.95538,26.210489 13.9355351,26.2502611 13.9355351,26.2989156 C13.9355351,26.3475259 13.9156902,26.42707 13.8914353,26.4756361 C13.8671804,26.5242464 13.8274906,26.6037906 13.8032357,26.6524451 C13.7789809,26.7010112 13.7591359,26.7805553 13.7591359,26.8292098 C13.7591359,26.8778201 13.739291,26.9175922 13.7150362,26.9175922 C13.6907813,26.9175922 13.6709364,26.9573643 13.6709364,27.0059304 C13.6709364,27.0545407 13.6510915,27.1340848 13.6268366,27.1827393 C13.6025817,27.2313054 13.5628919,27.3108496 13.538637,27.3595041 C13.5143821,27.4081144 13.4945372,27.4876585 13.4945372,27.5362246 C13.4945372,27.5848349 13.4746923,27.6246512 13.4504374,27.6246512 C13.4261825,27.6246512 13.4063376,27.6643791 13.4063376,27.7130336 C13.4063376,27.7629696 13.3837144,27.8456071 13.3542998,27.9030115 C13.2457702,28.1151292 13.2299384,28.1584365 13.2299384,28.2433278 C13.2299384,28.2918939 13.2100935,28.331666 13.1858386,28.331666 C13.1615837,28.331666 13.1417388,28.371438 13.1417388,28.4200925 C13.1417388,28.5048954 13.125907,28.548247 13.0173774,28.7603647 C12.9879628,28.8178132 12.9653396,28.9004065 12.9653396,28.9503868 C12.9653396,28.9989971 12.9454947,29.0387692 12.9212398,29.0387692 C12.896985,29.0387692 12.8771401,29.0785412 12.8771401,29.1271073 C12.8771401,29.1770876 12.8545169,29.2596809 12.8251023,29.3171736 C12.7165727,29.5292913 12.7007409,29.5725987 12.7007409,29.6574016 C12.7007409,29.7060561 12.680896,29.7458281 12.6566411,29.7458281 C12.6323862,29.7458281 12.6125413,29.785556 12.6125413,29.8342105 C12.6125413,29.8827766 12.5926964,29.9623208 12.5684415,30.0109753 C12.5441866,30.0595856 12.5044968,30.1391297 12.4802419,30.1876958 C12.455987,30.2363503 12.4361421,30.3158503 12.4361421,30.3645048 C12.4361421,30.4130709 12.4162972,30.4528429 12.3920423,30.4528429 C12.3677874,30.4528429 12.3479425,30.492615 12.3479425,30.5412695 C12.3479425,30.5912055 12.3253193,30.6738431 12.2959048,30.7312474 C12.1873752,30.9433651 12.1715433,30.9866725 12.1715433,31.0715637 C12.1715433,31.120174 12.1516984,31.1599461 12.1274435,31.1599461 C12.1031887,31.1599461 12.0833437,31.1997182 12.0833437,31.2482843 C12.0833437,31.2968946 12.0634988,31.3764387 12.039244,31.4250932 C12.0149891,31.4736593 11.9752993,31.5532035 11.9510444,31.601858 C11.9267895,31.6504683 11.9069446,31.7300124 11.9069446,31.7785785 C11.9069446,31.8271888 11.8870997,31.8670051 11.8628448,31.8670051 C11.8385899,31.8670051 11.818745,31.906733 11.818745,31.9553433 C11.818745,32.0401904 11.8029132,32.0834977 11.6943836,32.2956154 C11.664969,32.353064 11.6423458,32.4357015 11.6423458,32.4856375 C11.6423458,32.5342478 11.6225009,32.5740199 11.598246,32.5740199 C11.5739911,32.5740199 11.5541462,32.613792 11.5541462,32.6624465 C11.5541462,32.7123825 11.531523,32.79502 11.5021085,32.8524244 C11.3935789,33.0645421 11.377747,33.1078494 11.377747,33.1926965 C11.377747,33.2413068 11.3579021,33.2810789 11.3336472,33.2810789 C11.3093924,33.2810789 11.2895474,33.3208509 11.2895474,33.3694613 C11.2895474,33.4180716 11.2697025,33.4976157 11.2454476,33.546226 C11.2211928,33.5948363 11.1815029,33.6743804 11.1572481,33.7230349 C11.1329932,33.7716011 11.1131483,33.8511452 11.1131483,33.8997555 C11.1131483,33.94841 11.0933034,33.9881379 11.0690485,33.9881379 C11.0447936,33.9881379 11.0249487,34.0279099 11.0249487,34.0765202 C11.0249487,34.1613673 11.0091168,34.2046747 10.9005873,34.4167924 C10.8711727,34.4742409 10.8485495,34.5568784 10.8485495,34.6068145 C10.8485495,34.6554248 10.8287046,34.6951969 10.8044497,34.6951969 C10.7806799,34.6951969 10.7603499,34.7482263 10.7603499,34.8101381 C10.7603499,34.9653818 10.6613459,34.924991 10.6085584,34.7482263 C10.5847886,34.6686821 10.5508759,34.6068145 10.531031,34.6068145 C10.5116271,34.6068145 10.4957511,34.5670424 10.4957511,34.5184321 C10.4957511,34.4698218 10.4759062,34.3902777 10.4516513,34.3416674 C10.4273965,34.2930571 10.3877066,34.2135571 10.3634518,34.1649026 C10.3391969,34.1162923 10.319352,34.0367482 10.319352,33.9881379 C10.319352,33.9395276 10.2995071,33.8997555 10.2752522,33.8997555 C10.2509973,33.8997555 10.2311524,33.8599834 10.2311524,33.8113731 C10.2311524,33.7627628 10.2113075,33.6832629 10.1870526,33.6346084 C10.1627977,33.5859981 10.1231079,33.5064539 10.098853,33.4578436 C10.0745981,33.4092333 10.0547532,33.3296892 10.0547532,33.2810789 C10.0547532,33.2324686 10.0349083,33.1926965 10.0106534,33.1926965 C9.98723641,33.1926965 9.9665536,33.1418766 9.9665536,33.0844281 C9.9665536,33.0270237 9.95001618,32.965819 9.93127377,32.9540641 C9.91169346,32.9418231 9.86847566,32.8325383 9.83425422,32.708803 C9.80003278,32.5850677 9.75681498,32.4856375 9.73723467,32.4856375 C9.71849226,32.4856375 9.70195483,32.4348177 9.70195483,32.3773691 C9.70195483,32.3199206 9.68541741,32.25876 9.666675,32.2470051 C9.64709469,32.2347642 9.60387689,32.1254793 9.56965545,32.001744 C9.53543401,31.8780087 9.49221621,31.7785785 9.4726359,31.7785785 C9.45389349,31.7785785 9.43735607,31.7277587 9.43735607,31.6703543 C9.43735607,31.6128616 9.42081864,31.551701 9.40207623,31.5399461 C9.38249592,31.5277052 9.33927812,31.4184646 9.30505668,31.294685 C9.27083524,31.1709939 9.22761744,31.0715637 9.20803713,31.0715637 C9.18929472,31.0715637 9.1727573,31.0207439 9.1727573,30.9632511 C9.1727573,30.9058468 9.15621988,30.844642 9.13747746,30.8328871 C9.11789715,30.8206462 9.07467935,30.7113614 9.04045791,30.5876261 C9.00623647,30.4639349 8.96301867,30.3645048 8.94343837,30.3645048 C8.92469595,30.3645048 8.90815853,30.3136407 8.90815853,30.2561922 C8.90815853,30.1987878 8.89162111,30.137583 8.87287869,30.1258723 C8.85329839,30.1135872 8.81008059,30.0043466 8.77585915,29.8806113 C8.74163771,29.7568317 8.69841991,29.6574016 8.6788396,29.6574016 C8.66009718,29.6574016 8.64355976,29.6065817 8.64355976,29.5491774 C8.64355976,29.4916846 8.62702234,29.430524 8.60827993,29.4187692 C8.58869962,29.4065282 8.54548182,29.2972876 8.51126038,29.1735081 C8.47703894,29.049817 8.43382114,28.9503868 8.41424083,28.9503868 C8.39426362,28.9503868 8.37896099,28.8929382 8.37896099,28.8178132 C8.37896099,28.742644 8.36365836,28.6852397 8.34368116,28.6852397 C8.32392445,28.6852397 8.28123585,28.588019 8.24666161,28.4642395 C8.21208737,28.3405042 8.16939877,28.2433278 8.14964206,28.2433278 C8.12966485,28.2433278 8.11436223,28.1858351 8.11436223,28.1107542 C8.11436223,28.035585 8.0990596,27.9781807 8.07908239,27.9781807 C8.05932568,27.9781807 8.01663708,27.8809159 7.98206284,27.7572247 C7.9474886,27.6334894 7.9048,27.5362246 7.88504329,27.5362246 C7.86506609,27.5362246 7.84976346,27.4787761 7.84976346,27.4036511 C7.84976346,27.3285702 7.83446083,27.2710775 7.81448362,27.2710775 C7.79472691,27.2710775 7.75203831,27.1738569 7.71746407,27.0501658 C7.68288983,26.9263862 7.64020123,26.8292098 7.62044452,26.8292098 C7.60046732,26.8292098 7.58516469,26.7717613 7.58516469,26.6966363 C7.58516469,26.6214671 7.56986206,26.5640627 7.54988485,26.5640627 C7.53012815,26.5640627 7.48743954,26.4668421 7.4528653,26.3430626 C7.41829107,26.2193273 7.37560246,26.1221508 7.35584576,26.1221508 C7.33586855,26.1221508 7.32056592,26.0646581 7.32056592,25.9895773 C7.32056592,25.9144081 7.30526329,25.8570037 7.28528608,25.8570037 C7.26570578,25.8570037 7.22248798,25.7575735 7.18826654,25.633794 C7.1540451,25.5100587 7.1108273,25.4008181 7.09124699,25.3885329 C7.07250458,25.3768223 7.05596715,25.3156175 7.05596715,25.2581689 C7.05596715,25.2007646 7.03942973,25.1499005 7.02068732,25.1499005 C7.00110701,25.1499005 6.95788921,25.0504704 6.92366777,24.926735 C6.88944633,24.8030439 6.84622853,24.6937591 6.82664822,24.681474 C6.80794991,24.6697633 6.79136838,24.6086027 6.79136838,24.5511542 C6.79136838,24.4936614 6.77483096,24.4428857 6.75608855,24.4428857 C6.73650824,24.4428857 6.69329044,24.3434556 6.659069,24.2197203 C6.62484756,24.0959407 6.58162976,23.9867001 6.56204945,23.9744592 C6.54330704,23.9627043 6.52676962,23.9015437 6.52676962,23.844051 C6.52676962,23.7866024 6.51023219,23.7358268 6.49148978,23.7358268 C6.47190947,23.7358268 6.42869167,23.6363966 6.39447023,23.5126171 C6.36024879,23.3888818 6.31703099,23.2796411 6.29745068,23.267356 C6.27875237,23.2556453 6.26217085,23.1944405 6.26217085,23.136992 C6.26217085,23.0795876 6.24148804,23.0287236 6.21807105,23.0287236 C6.19381617,23.0287236 6.17397126,22.9889515 6.17397126,22.9403854 C6.17397126,22.8917309 6.15412635,22.8121868 6.12987146,22.7635765 C6.10561658,22.7150103 6.06592676,22.6354662 6.04167187,22.5868117 C6.01741699,22.5382014 5.99757208,22.4586573 5.99757208,22.4100912 C5.99757208,22.3614367 5.97772717,22.3217088 5.95347228,22.3217088 C5.9292174,22.3217088 5.90937249,22.2818925 5.90937249,22.2332822 C5.90937249,22.1847161 5.88952758,22.105172 5.8652727,22.0565617 C5.84101781,22.0079072 5.80132799,21.928363 5.77707311,21.8797969 C5.75281822,21.8311424 5.73297331,21.7515983 5.73297331,21.702988 C5.73297331,21.6544219 5.7131284,21.6146498 5.68887352,21.6146498 C5.66461863,21.6146498 5.64477372,21.5748777 5.64477372,21.5262674 C5.64477372,21.4776129 5.62492881,21.3980688 5.60067393,21.3495027 C5.57641904,21.3008482 5.53672922,21.221304 5.51247434,21.1726937 C5.48821945,21.1241276 5.46837454,21.0445835 5.46837454,20.9959732 C5.46837454,20.9473187 5.44852964,20.9075466 5.42427475,20.9075466 C5.40001986,20.9075466 5.38017495,20.8677746 5.38017495,20.8192084 C5.38017495,20.7705539 5.36033005,20.6910098 5.33607516,20.6423995 C5.31182027,20.5938334 5.27213046,20.5142893 5.24787557,20.4656789 C5.22362068,20.4170245 5.20377577,20.3374803 5.20377577,20.2889142 C5.20377577,20.2402597 5.18393087,20.2004876 5.15967598,20.2004876 C5.13625899,20.2004876 5.11557619,20.149712 5.11557619,20.0922192 C5.11557619,20.0348149 5.09489338,19.9715331 5.07147639,19.9574803 C5.04660411,19.9424995 5.0273766,19.8933589 5.0273766,19.8447928 C5.0273766,19.7961383 5.00814909,19.75862 4.9832768,19.75862 C4.95809582,19.75862 4.93917701,19.7321052 4.93917701,19.6967081 C4.93917701,19.616236 4.76079334,19.2724727 4.6617011,19.1620389 C4.62205538,19.1178036 4.58637865,19.0613272 4.58637865,19.0427227 C4.58637865,18.9848765 4.13215076,18.5502562 3.99985138,18.4814947 C3.93370169,18.4471139 3.88078193,18.4029227 3.88078193,18.3820203 C3.88078193,18.361383 3.84109212,18.3444578 3.79258234,18.3444578 C3.74407257,18.3444578 3.70438276,18.3245718 3.70438276,18.3003108 C3.70438276,18.2767127 3.6735129,18.2560754 3.63823306,18.2560754 C3.60321783,18.2560754 3.53680354,18.2381338 3.49711372,18.2179384 C3.24927287,18.0917284 2.59747791,18.0203596 2.09474025,18.0644182 Z M49.41382,18.0641973 C49.2903405,18.0751567 49.1748873,18.1022017 49.1514262,18.1257114 C49.1290676,18.1481164 49.0632266,18.1676931 49.0103068,18.1676931 C48.9573871,18.1676931 48.8987344,18.1883303 48.8846224,18.2119284 C48.8696726,18.2368081 48.8206777,18.2560754 48.772168,18.2560754 C48.7236582,18.2560754 48.6861734,18.2753428 48.6861734,18.3003108 C48.6861734,18.3240857 48.6597135,18.3444578 48.6288436,18.3444578 C48.5968272,18.3444578 48.5296191,18.3835228 48.4766993,18.4328844 C48.4237796,18.4822017 48.3623927,18.5212225 48.337785,18.5212225 C48.2778093,18.5212225 47.892377,18.9189432 47.892377,18.9808109 C47.892377,19.0099771 47.8526872,19.0616808 47.8041775,19.095708 C47.7556677,19.1297352 47.7159779,19.1933705 47.7159779,19.2371198 C47.7159779,19.2813551 47.6963976,19.3166639 47.6718781,19.3166639 C47.6476232,19.3166639 47.6277783,19.356436 47.6277783,19.4050905 C47.6277783,19.4537008 47.6079334,19.4934728 47.5836785,19.4934728 C47.5586739,19.4934728 47.5395787,19.5508772 47.5395787,19.6260022 C47.5395787,19.7011272 47.5223798,19.75862 47.4998889,19.75862 C47.4160993,19.75862 47.3253419,20.8873071 47.4028693,20.9650394 C47.429682,20.9918634 47.4513791,21.0887305 47.4513791,21.181532 C47.4513791,21.2743335 47.4710917,21.3495027 47.4954789,21.3495027 C47.5188959,21.3495027 47.5395787,21.4002784 47.5395787,21.4577269 C47.5395787,21.5152196 47.5602615,21.5784572 47.5836785,21.5925542 C47.6085508,21.6074908 47.6277783,21.6565872 47.6277783,21.7051975 C47.6277783,21.753852 47.6450654,21.7914145 47.6674681,21.7914145 C47.6884596,21.7914145 47.7183593,21.8267675 47.7309718,21.8665396 C47.7625032,21.9661465 47.895464,22.1847161 47.991778,22.2951499 C48.0341138,22.3438044 48.0687762,22.4014297 48.0687762,22.4233485 C48.0687762,22.4458418 48.126106,22.5167245 48.2010756,22.5868117 C48.2760453,22.6569431 48.333375,22.7287538 48.333375,22.7525729 C48.333375,22.775729 48.38775,22.852003 48.4546494,22.9226647 C48.5204904,22.9922659 48.6253156,23.1215251 48.6839684,23.2055325 C48.7426211,23.2894516 48.8242498,23.3904726 48.8625725,23.4264443 C48.9008953,23.4624601 48.9815097,23.5634811 49.0389717,23.6474444 C49.0964337,23.7313634 49.1770482,23.8323845 49.2153709,23.8684003 C49.2536936,23.9043719 49.334308,24.0053488 49.3917701,24.0893121 C49.4492321,24.1733195 49.5298465,24.2742964 49.5681692,24.3103122 C49.606492,24.3462838 49.6881207,24.4472607 49.7467734,24.5312681 C49.8054261,24.6151872 49.9102514,24.7444906 49.9760923,24.8140475 C50.0429917,24.8847534 50.0973668,24.9600552 50.0973668,24.9820182 C50.0973668,25.0035835 50.1679265,25.092452 50.2517161,25.1764153 C50.3355057,25.2604227 50.4060653,25.3492912 50.4060653,25.3709007 C50.4060653,25.392466 50.476625,25.4813344 50.5604146,25.5653419 C50.6442042,25.6492609 50.7147639,25.73919 50.7147639,25.7619485 C50.7147639,25.7855024 50.7922031,25.8835184 50.8911631,25.985114 C50.990123,26.0867537 51.0675623,26.1837975 51.0675623,26.2060699 C51.0675623,26.2283864 51.1450015,26.3253861 51.2439614,26.42707 C51.3429214,26.5286656 51.4203606,26.6247372 51.4203606,26.6458164 C51.4203606,26.6664979 51.4747357,26.7407833 51.5416351,26.8115333 C51.6074761,26.8810903 51.7123013,27.0103937 51.770954,27.0943569 C51.8296067,27.178276 51.9112354,27.2792971 51.9495582,27.3153129 C51.9878809,27.3512845 52.0684953,27.4522614 52.1259573,27.5362246 C52.1834194,27.6202321 52.2640338,27.7212089 52.3023565,27.7572247 C52.3406792,27.7931964 52.4212937,27.8941732 52.4787557,27.9781807 C52.5362177,28.0620997 52.6168322,28.1631208 52.6551549,28.1990924 C52.6934776,28.2351082 52.7751063,28.3361293 52.833759,28.4200925 C52.8924118,28.5040116 52.997237,28.633315 53.063078,28.7028719 C53.1299774,28.773622 53.1843524,28.8488796 53.1843524,28.8707985 C53.1843524,28.8924079 53.2549121,28.9812764 53.3387017,29.0652839 C53.4224913,29.1492471 53.493051,29.2381156 53.493051,29.2596809 C53.493051,29.2812904 53.5636106,29.3702031 53.6474003,29.4541221 C53.8546693,29.6618649 53.8835547,29.7928034 53.7516522,29.927012 C53.6950721,29.9845489 53.5980085,30.1037768 53.5393558,30.1876958 C53.480703,30.2717033 53.3990743,30.3726801 53.3607516,30.4086959 C53.3224289,30.4446676 53.2408001,30.5456444 53.1821474,30.6296519 C53.1234947,30.7135709 53.0186695,30.8428743 52.9528285,30.9124313 C52.8859291,30.9831372 52.8315541,31.0574226 52.8315541,31.0781482 C52.8315541,31.0992274 52.7541148,31.1952549 52.6551549,31.2968946 C52.5561949,31.3985785 52.4787557,31.4975226 52.4787557,31.5222697 C52.4787557,31.5473261 52.421426,31.6201089 52.3464563,31.6902404 C52.2714867,31.7603276 52.2141569,31.8321383 52.2141569,31.8559131 C52.2141569,31.8791135 52.1597819,31.9553433 52.0928825,32.0260492 C52.0270415,32.0956503 51.921202,32.2249095 51.8613586,32.3088728 C51.8015151,32.392836 51.6956756,32.5221394 51.6298346,32.5916964 C51.5629353,32.6624465 51.5085602,32.7367318 51.5085602,32.7574133 C51.5085602,32.7784925 51.431121,32.87452 51.332161,32.9761597 C51.2332011,33.0777994 51.1557619,33.1767877 51.1557619,33.2015347 C51.1557619,33.2265911 51.0984321,33.299374 51.0234625,33.3694613 C50.9484928,33.4395927 50.8911631,33.5114033 50.8911631,33.5351782 C50.8911631,33.5583786 50.836788,33.6346084 50.7698887,33.7053143 C50.7040477,33.7749154 50.5982082,33.9041746 50.5383647,33.9881379 C50.4785213,34.0721011 50.3726818,34.2014045 50.3068408,34.2709615 C50.2399414,34.3416674 50.1855664,34.4159969 50.1855664,34.4366784 C50.1855664,34.4577576 50.1081271,34.5537851 50.0091672,34.6554248 C49.9102073,34.7570645 49.832768,34.8560528 49.832768,34.8807998 C49.832768,34.9058562 49.7754383,34.9786391 49.7004686,35.0487263 C49.625499,35.1188578 49.5681692,35.1906684 49.5681692,35.2144433 C49.5681692,35.2376437 49.5137942,35.3138735 49.4468948,35.3845794 C49.3810538,35.4541805 49.2762286,35.5834397 49.2175759,35.667403 C49.1589232,35.7513662 49.0772944,35.8523873 49.0389717,35.8883589 C49.000649,35.9243747 48.9190203,36.0253516 48.8603675,36.109359 C48.8017148,36.1932781 48.6968896,36.3225815 48.6310486,36.3921384 C48.5641492,36.4628443 48.5097742,36.5391183 48.5097742,36.5622745 C48.5097742,36.5860935 48.4524444,36.6579042 48.3774748,36.7279914 C48.3025051,36.7981228 48.2451754,36.8699335 48.2451754,36.8937084 C48.2451754,36.9169088 48.1908004,36.9931386 48.123901,37.0638445 C48.05806,37.1334456 47.9532348,37.2627048 47.894582,37.346668 C47.8359293,37.4306313 47.7552708,37.5316524 47.7181829,37.567624 C47.6808744,37.6038166 47.6217807,37.6891497 47.5880885,37.7554365 C47.5543962,37.8217233 47.5093262,37.8769623 47.4888639,37.8769623 C47.4682252,37.8769623 47.4513791,37.9167344 47.4513791,37.9653889 C47.4513791,38.013955 47.4355032,38.053727 47.4160993,38.053727 C47.3760567,38.053727 47.2749799,38.2658447 47.2749799,38.349808 C47.2749799,38.3807418 47.2546499,38.4072565 47.2308801,38.4072565 C47.2074631,38.4072565 47.1867803,38.4580764 47.1867803,38.5155249 C47.1867803,38.5729735 47.1681702,38.6351505 47.1470905,38.6479217 C47.0790004,38.6892847 47.041251,38.981742 47.041251,39.467845 C47.041251,39.9539923 47.0790004,40.2464495 47.1470905,40.2878125 C47.1681702,40.3005837 47.1867803,40.3627165 47.1867803,40.4201651 C47.1867803,40.4776578 47.2074631,40.5284335 47.2308801,40.5284335 C47.255135,40.5284335 47.2749799,40.5682056 47.2749799,40.61686 C47.2749799,40.6654262 47.2938105,40.7051982 47.3168747,40.7051982 C47.3408209,40.7051982 47.371338,40.7449703 47.3880959,40.7979997 C47.4258012,40.9173159 48.0128577,41.5006396 48.0952361,41.5006396 C48.1305159,41.5006396 48.1569758,41.5195976 48.1569758,41.5448308 C48.1569758,41.5691359 48.1966656,41.589022 48.2451754,41.589022 C48.2936852,41.589022 48.333375,41.608908 48.333375,41.6332132 C48.333375,41.6575183 48.3730648,41.6774485 48.4215746,41.6774485 C48.4700844,41.6774485 48.5097742,41.6953018 48.5097742,41.7171764 C48.5097742,41.7847447 48.8140628,41.8232353 49.3476703,41.8232353 C49.8812778,41.8232353 50.1855664,41.7847447 50.1855664,41.7171764 C50.1855664,41.6948157 50.2164362,41.6774485 50.256126,41.6774485 C50.3425616,41.6774485 50.6574342,41.5105826 50.7809136,41.3993534 C50.8250134,41.3596255 50.881417,41.3238748 50.899983,41.3238748 C50.9484928,41.3238748 51.5085602,40.762691 51.5085602,40.7140365 C51.5085602,40.6947691 51.5887336,40.5903011 51.6849594,40.4842865 C51.7811851,40.3782276 51.8613586,40.2737597 51.8613586,40.2544481 C51.8613586,40.2354017 51.9222604,40.155018 51.993658,40.0799371 C52.0650555,40.0047679 52.1259573,39.9234119 52.1259573,39.9031282 C52.1259573,39.8828886 52.1868592,39.8015327 52.2582567,39.7263634 C52.3296543,39.6512384 52.3905561,39.5698825 52.3905561,39.5496429 C52.3905561,39.5293591 52.4514579,39.447959 52.5228555,39.372834 C52.5942531,39.2977089 52.6551549,39.2102546 52.6551549,39.1828119 C52.6551549,39.154883 52.6948447,39.1041515 52.7433545,39.0701243 C52.7918642,39.0360971 52.8315541,38.9854098 52.8315541,38.9574368 C52.8315541,38.9300383 52.8924559,38.8425397 52.9638534,38.7674147 C53.035251,38.6922897 53.0961528,38.6109337 53.0961528,38.59065 C53.0961528,38.5704104 53.1570546,38.4890544 53.2284522,38.4138852 C53.2998498,38.3387602 53.3607516,38.2574042 53.3607516,38.2371205 C53.3607516,38.2168809 53.4216534,38.1354807 53.493051,38.0603557 C53.5644485,37.9852307 53.6253504,37.9038747 53.6253504,37.883591 C53.6253504,37.8633514 53.6862522,37.7819512 53.7576497,37.7068262 C53.8290473,37.6317012 53.8899491,37.5513616 53.8899491,37.532271 C53.8899491,37.5123408 53.9245675,37.4593556 53.9693288,37.4107453 C54.0124143,37.363991 54.0970859,37.2538666 54.1545479,37.1699475 C54.2120099,37.08594 54.2966815,36.9758598 54.339767,36.9290613 C54.3845283,36.880451 54.4191467,36.82751 54.4191467,36.8075356 C54.4191467,36.7884892 54.4800485,36.7081054 54.551446,36.6329804 C54.6228436,36.5578554 54.6837454,36.4764994 54.6837454,36.4562156 C54.6837454,36.4359761 54.7446472,36.3546201 54.8160448,36.2794509 C54.8874424,36.2043259 54.9483442,36.1229699 54.9483442,36.1026861 C54.9483442,36.0824466 55.009246,36.0010464 55.0806436,35.9259214 C55.1520412,35.8507964 55.212943,35.7694404 55.212943,35.7491567 C55.212943,35.7289171 55.2738448,35.6475169 55.3452424,35.5724361 C55.4166399,35.4972669 55.4775417,35.4159109 55.4775417,35.3956272 C55.4775417,35.3753876 55.5384436,35.2939874 55.6098411,35.2188624 C55.6812387,35.1437374 55.7421405,35.056283 55.7421405,35.0288403 C55.7421405,35.0009115 55.7818303,34.95018 55.8303401,34.916197 C55.8788499,34.8821256 55.9185397,34.8314383 55.9185397,34.8034653 C55.9185397,34.7760667 55.9794415,34.6885682 56.0508391,34.6134432 C56.1222366,34.5383181 56.1831385,34.4569622 56.1831385,34.4366784 C56.1831385,34.4164388 56.2440403,34.3350387 56.3154378,34.2599137 C56.3868354,34.1847886 56.4477372,34.1034327 56.4477372,34.0831489 C56.4477372,34.0629094 56.508639,33.9815534 56.5800366,33.9063842 C56.6514342,33.8312592 56.712336,33.751936 56.712336,33.7340385 C56.712336,33.7163179 56.7616396,33.6434466 56.8185724,33.5771598 C56.9285573,33.4490054 57.0651343,33.4147572 57.0651343,33.5152922 C57.0651343,33.5477285 57.0997527,33.6103032 57.144514,33.6589135 C57.1875995,33.705712 57.2722711,33.8158364 57.3297331,33.8997555 C57.3871951,33.9837187 57.4718668,34.0938432 57.5149523,34.1405975 C57.5597135,34.1892078 57.5943319,34.242193 57.5943319,34.2621232 C57.5943319,34.2812138 57.6552337,34.3615534 57.7266313,34.4366784 C57.7980288,34.5118476 57.8589307,34.5932036 57.8589307,34.6134432 C57.8589307,34.6337269 57.9198325,34.7150829 57.99123,34.7902079 C58.0626276,34.8653329 58.1235294,34.9528315 58.1235294,34.98023 C58.1235294,35.008203 58.1632192,35.0588903 58.211729,35.0929175 C58.2602388,35.1269447 58.2999286,35.1776762 58.2999286,35.2056051 C58.2999286,35.2330478 58.3608304,35.3205021 58.432228,35.3956272 C58.5036255,35.4707522 58.5645274,35.5521523 58.5645274,35.5724361 C58.5645274,35.5926757 58.6254292,35.6740316 58.6968267,35.7491567 C58.7682243,35.8243259 58.8291261,35.903649 58.8291261,35.9215023 C58.8291261,35.9395323 58.8896311,36.0253516 58.9614255,36.109359 C59.0332641,36.1932781 59.0937249,36.2791416 59.0937249,36.2971274 C59.0937249,36.3150248 59.1546267,36.394348 59.2260243,36.469473 C59.2974219,36.544598 59.3583237,36.6259982 59.3583237,36.6462377 C59.3583237,36.6665215 59.4192255,36.7478775 59.4906231,36.8230025 C59.5620206,36.8981275 59.6229224,36.9856261 59.6229224,37.0130246 C59.6229224,37.0409976 59.6626123,37.0916849 59.711122,37.1257121 C59.7596318,37.1597393 59.7993216,37.2104708 59.7993216,37.2383996 C59.7993216,37.2658424 59.8602234,37.3532967 59.931621,37.4284217 C60.0030186,37.5035468 60.0639204,37.5849469 60.0639204,37.6051865 C60.0639204,37.6254702 60.1248222,37.7068262 60.1962198,37.7819512 C60.2676173,37.8570763 60.3285192,37.93746 60.3285192,37.9565064 C60.3285192,37.9764808 60.3631375,38.0294219 60.4078988,38.0780764 C60.4509843,38.1248307 60.5356559,38.2349109 60.5931179,38.3188742 C60.65058,38.4028374 60.7352516,38.5129618 60.7783371,38.5597161 C60.8230984,38.6083706 60.8577167,38.6613117 60.8577167,38.6812419 C60.8577167,38.7003325 60.9186185,38.7806721 60.9900161,38.8557971 C61.0614136,38.9309221 61.1223155,39.0184206 61.1223155,39.0458192 C61.1223155,39.0737922 61.1620053,39.1244795 61.210515,39.1585067 C61.2590248,39.1925339 61.2987146,39.2432654 61.2987146,39.2712384 C61.2987146,39.298637 61.3596165,39.3860913 61.431014,39.4612163 C61.5024116,39.5363855 61.5633134,39.6177415 61.5633134,39.6379811 C61.5633134,39.6582648 61.6242152,39.7396208 61.6956128,39.81479 C61.7670104,39.8898708 61.8279122,39.9702546 61.8279122,39.989301 C61.8279122,40.0092754 61.8625305,40.0622165 61.9072918,40.1108268 C61.9503773,40.1576252 62.0350489,40.2677055 62.0925109,40.3516687 C62.149973,40.435632 62.2104338,40.5164577 62.2248103,40.5284335 C62.2391869,40.5404535 62.300662,40.621235 62.3593147,40.7051982 C62.510577,40.921735 62.9730956,41.3758879 63.1200362,41.4521177 C63.1861859,41.4864542 63.2391056,41.5306012 63.2391056,41.5514595 C63.2391056,41.5721409 63.2787954,41.589022 63.3273052,41.589022 C63.375815,41.589022 63.4155048,41.608908 63.4155048,41.6332132 C63.4155048,41.6566787 63.4662195,41.6774485 63.5235493,41.6774485 C63.580879,41.6774485 63.6431479,41.6960972 63.6562456,41.7171764 C63.6936863,41.7776741 63.9711622,41.8158111 64.5356396,41.8379951 C64.875208,41.8513408 65.0767881,41.8422375 65.1067319,41.8121875 C65.1320011,41.7869101 65.2081614,41.7657867 65.2743111,41.7657867 C65.3404608,41.7657867 65.4076248,41.7457239 65.4220454,41.7215955 C65.4369953,41.6966717 65.4859901,41.6774485 65.5344999,41.6774485 C65.5830097,41.6774485 65.6204945,41.6581812 65.6204945,41.6332132 C65.6204945,41.608908 65.6601843,41.589022 65.7086941,41.589022 C65.7572039,41.589022 65.7968937,41.5691359 65.7968937,41.5448308 C65.7968937,41.5214536 65.8321735,41.5006396 65.8718633,41.5006396 C65.9612977,41.5006396 66.6124312,40.8422351 66.6541055,40.7096615 C66.6707752,40.6565879 66.7012482,40.61686 66.7251944,40.61686 C66.7488319,40.61686 66.7670892,40.5792533 66.7670892,40.5306872 C66.7670892,40.4820327 66.7863167,40.4329363 66.811189,40.4179997 C66.834606,40.4039027 66.8552888,40.3406209 66.8552888,40.2831724 C66.8552888,40.2257239 66.8738989,40.174904 66.8949786,40.174904 C67.031732,40.174904 67.0362743,38.8536317 66.9007116,38.5177345 C66.8097337,38.2923594 66.5669643,37.8097475 66.5377702,37.7961808 C66.5171756,37.7865913 66.5024904,37.7576461 66.5024904,37.7267123 C66.5024904,37.696839 66.4678721,37.6361203 66.4231108,37.58751 C66.3800253,37.5407557 66.2953537,37.4306313 66.2378916,37.346668 C66.1804296,37.2627048 66.0998152,37.1617279 66.0614925,37.1257121 C66.0231697,37.0897405 65.941541,36.9887194 65.8828883,36.9048004 C65.8242356,36.8207929 65.7194104,36.6915337 65.6535694,36.6219326 C65.58667,36.5512267 65.5322949,36.4749969 65.5322949,36.4517965 C65.5322949,36.4280217 65.4749652,36.356211 65.3999955,36.2860796 C65.3250259,36.2159923 65.2676962,36.1441817 65.2676962,36.1203626 C65.2676962,36.0972064 65.2133211,36.0209324 65.1464217,35.9502266 C65.0805807,35.8806696 64.9757555,35.7513662 64.9171028,35.667403 C64.8584501,35.5834397 64.7768213,35.4824628 64.7384986,35.446447 C64.7001759,35.4104754 64.6185472,35.3094543 64.5598945,35.2254911 C64.5012417,35.141572 64.4065154,35.024377 64.3526254,34.9691822 C64.2965305,34.9117337 64.2534009,34.8502637 64.2534009,34.8277704 C64.2534009,34.8062051 64.1828412,34.7172924 64.0990516,34.6333292 C64.015262,34.5493659 63.9447023,34.4604975 63.9447023,34.438888 C63.9447023,34.4169691 63.8903273,34.3416674 63.8234279,34.2709615 C63.7575869,34.2014045 63.6517474,34.0721011 63.591904,33.9881379 C63.5320605,33.9041746 63.426221,33.7749154 63.36038,33.7053143 C63.2934807,33.6346084 63.2391056,33.5583786 63.2391056,33.5351782 C63.2391056,33.5114033 63.1817759,33.4395927 63.1068062,33.3694613 C63.0318366,33.299374 62.9745068,33.2265911 62.9745068,33.2015347 C62.9745068,33.1767877 62.8970676,33.0777994 62.7981077,32.9761597 C62.6991477,32.87452 62.6217085,32.7784925 62.6217085,32.7574133 C62.6217085,32.7367318 62.5673334,32.6624465 62.500434,32.5916964 C62.434593,32.5221394 62.3287535,32.392836 62.2689101,32.3088728 C62.2090667,32.2249095 62.1032272,32.0956503 62.0373862,32.0260492 C61.9704868,31.9553433 61.9161118,31.8791135 61.9161118,31.8559131 C61.9161118,31.8321383 61.858782,31.7603276 61.7838124,31.6902404 C61.7088427,31.6201089 61.651513,31.5473261 61.651513,31.5222697 C61.651513,31.4975226 61.5740738,31.3985785 61.4751138,31.2968946 C61.3761539,31.1952549 61.2987146,31.0992274 61.2987146,31.0781482 C61.2987146,31.0574226 61.2443396,30.9831372 61.1774402,30.9124313 C61.1115992,30.8428743 61.0057597,30.7135709 60.9459163,30.6296519 C60.8860729,30.5456444 60.7802334,30.4163852 60.7143924,30.3467841 C60.647493,30.2761224 60.5931179,30.1998484 60.5931179,30.1766922 C60.5931179,30.1541989 60.5357882,30.0786762 60.4696385,30.0140245 C60.3417491,29.889096 60.2403196,29.7313776 60.2403196,29.6574016 C60.2403196,29.630224 60.2888293,29.560181 60.3505691,29.4983133 C60.4123088,29.4364898 60.4608185,29.3703798 60.4608185,29.3481075 C60.4608185,29.326498 60.5313782,29.2376295 60.6151678,29.153622 C60.6989574,29.0696588 60.7695171,28.9807903 60.7695171,28.959225 C60.7695171,28.937262 60.8238921,28.8619602 60.8907915,28.7912543 C60.9566325,28.7216974 61.0614577,28.592394 61.1201105,28.5084749 C61.1787632,28.4244675 61.2603919,28.3234906 61.2987146,28.287519 C61.3370374,28.2515032 61.4186661,28.1505263 61.4773188,28.0665189 C61.5359715,27.9825556 61.6407967,27.8532964 61.7066377,27.7836953 C61.7735371,27.7130336 61.8279122,27.638704 61.8279122,27.6179783 C61.8279122,27.5969433 61.9053514,27.5009159 62.0043114,27.3992319 C62.1032713,27.2975922 62.1807105,27.1986481 62.1807105,27.1738569 C62.1807105,27.1488447 62.2380403,27.0760618 62.3130099,27.0059304 C62.3879796,26.9358432 62.4453093,26.8640325 62.4453093,26.8402134 C62.4453093,26.8170572 62.4996843,26.7407833 62.5665837,26.6700774 C62.6324247,26.6005204 62.7372499,26.471217 62.7959027,26.387298 C62.8545554,26.3032905 62.9361841,26.2023136 62.9745068,26.166342 C63.0128296,26.1303262 63.0944583,26.0293493 63.153111,25.9453419 C63.2117637,25.8613786 63.3165889,25.7321194 63.3824299,25.6625183 C63.4493293,25.5918566 63.5037044,25.517527 63.5037044,25.4968014 C63.5037044,25.4757663 63.5811436,25.3797389 63.6801036,25.278055 C63.7790635,25.1764153 63.8565027,25.0774712 63.8565027,25.0526799 C63.8565027,25.0276677 63.9138325,24.9548848 63.9888021,24.8847534 C64.0637718,24.8146662 64.1211015,24.7428555 64.1211015,24.7190365 C64.1211015,24.6958803 64.1754765,24.6196063 64.2423759,24.5489004 C64.3082169,24.4793435 64.4130421,24.3500401 64.4716949,24.266121 C64.5303476,24.1821136 64.6119763,24.0811367 64.650299,24.0451209 C64.6886218,24.0091492 64.7702505,23.9081724 64.8289032,23.8241649 C64.8875559,23.7402017 64.9923811,23.6109425 65.0582221,23.5413413 C65.1251215,23.4706796 65.1794966,23.3963501 65.1794966,23.3756244 C65.1794966,23.3545894 65.2569358,23.2585619 65.3558957,23.156878 C65.4548557,23.0552383 65.5322949,22.9562942 65.5322949,22.931503 C65.5322949,22.9064908 65.5896247,22.8337079 65.6645943,22.7635765 C65.739564,22.6934892 65.7968937,22.6216786 65.7968937,22.5978595 C65.7968937,22.5752336 65.8577955,22.4918007 65.9291931,22.4167198 C66.0005906,22.3415506 66.0614925,22.2612111 66.0614925,22.2421205 C66.0614925,22.2226763 66.0963313,22.1669954 66.1388435,22.1184293 C66.2819914,21.9548777 66.5024904,21.5288305 66.5024904,21.4157895 C66.5024904,21.3803923 66.5210123,21.3495027 66.5421802,21.3495027 C66.6018913,21.3495027 66.6415812,21.0710982 66.6649982,20.4877745 C66.6851959,19.983995 66.6537968,19.7384246 66.5417833,19.5243625 C66.5209682,19.4845904 66.5024904,19.4180827 66.5024904,19.3829507 C66.5024904,19.3476419 66.4818958,19.3166639 66.4583906,19.3166639 C66.4341357,19.3166639 66.4142908,19.2768918 66.4142908,19.2283257 C66.4142908,19.1796712 66.3974447,19.1399433 66.376806,19.1399433 C66.3567406,19.1399433 66.3099507,19.0824948 66.276038,19.016208 C66.1992161,18.8659138 65.7616139,18.4328844 65.6866442,18.4328844 C65.6557744,18.4328844 65.6221703,18.4165336 65.6137913,18.3974872 C65.5985328,18.3627529 65.294156,18.2113981 65.0471972,18.1157684 C64.8575681,18.0423227 63.7849288,18.0450183 63.7109734,18.1191269 C63.6850868,18.145023 63.6161588,18.1676931 63.5632391,18.1676931 C63.5103193,18.1676931 63.4516666,18.1883303 63.4375547,18.2119284 C63.4226048,18.2368081 63.37361,18.2560754 63.3251002,18.2560754 C63.2765904,18.2560754 63.2391056,18.2753428 63.2391056,18.3003108 C63.2391056,18.3245718 63.1994158,18.3444578 63.150906,18.3444578 C63.1023962,18.3444578 63.0627064,18.3603666 63.0627064,18.3798549 C63.0627064,18.3998735 63.0053767,18.4491025 62.930407,18.4934263 C62.7637539,18.5919726 62.3227119,19.0250021 62.1819894,19.2283257 C62.1238218,19.3122448 62.0385769,19.4152986 61.9954914,19.4537008 C61.9513916,19.4929425 61.9161118,19.5440276 61.9161118,19.5685537 C61.9161118,19.5924169 61.8552099,19.6768221 61.7838124,19.7519913 C61.7124148,19.8270721 61.651513,19.9074559 61.651513,19.9265023 C61.651513,19.9464767 61.6168947,19.9994177 61.5721334,20.048028 C61.5290479,20.0948265 61.4443763,20.2049068 61.3869142,20.2889142 C61.3294522,20.3728333 61.2447806,20.4829577 61.2016951,20.529712 C61.1569338,20.5783223 61.1223155,20.6313075 61.1223155,20.6512377 C61.1223155,20.6703283 61.0614136,20.7506679 60.9900161,20.8258371 C60.9186185,20.9009179 60.8577167,20.9884165 60.8577167,21.015815 C60.8577167,21.0437881 60.8180269,21.0944753 60.7695171,21.1285467 C60.7210073,21.1625298 60.6813175,21.2132613 60.6813175,21.2411901 C60.6813175,21.2686328 60.6204157,21.3561314 60.5490181,21.4312122 C60.4776206,21.5063372 60.4167187,21.5877374 60.4167187,21.6080211 C60.4167187,21.6282607 60.3558169,21.7096167 60.2844194,21.7847417 C60.2130218,21.8599109 60.15212,21.9392341 60.15212,21.9571315 C60.15212,21.9751173 60.0916592,22.0609366 60.0198206,22.144944 C59.9480261,22.2288631 59.8875212,22.3147266 59.8875212,22.3327124 C59.8875212,22.3506098 59.8266194,22.4299772 59.7552218,22.505058 C59.6838243,22.580183 59.6229224,22.6625996 59.6229224,22.6840323 C59.6229224,22.7063047 59.5744127,22.7724147 59.512673,22.8343266 C59.4509332,22.89615 59.4024235,22.96226 59.4024235,22.9845766 C59.4024235,23.0068048 59.3539137,23.072959 59.292174,23.1347824 C59.2304343,23.1966501 59.1819245,23.2628043 59.1819245,23.2850767 C59.1819245,23.3065094 59.1210227,23.3888818 59.0496251,23.464051 C58.9782275,23.5391318 58.9173257,23.6184992 58.9173257,23.6363966 C58.9173257,23.6543824 58.8568649,23.7402017 58.7850263,23.8241649 C58.7131878,23.9081724 58.652727,23.9939917 58.652727,24.0120217 C58.652727,24.0298749 58.5918251,24.1091981 58.5204276,24.1843231 C58.44903,24.2594923 58.3881282,24.3418647 58.3881282,24.3632974 C58.3881282,24.385614 58.3396184,24.451724 58.2778787,24.5135475 C58.216139,24.5754151 58.1676292,24.6415693 58.1676292,24.6638417 C58.1676292,24.6860698 58.1191194,24.7521799 58.0573797,24.8140475 C57.99564,24.8759594 57.9471302,24.9420252 57.9471302,24.9642976 C57.9471302,24.9857745 57.8862284,25.068191 57.8148309,25.1432719 C57.7434333,25.2183969 57.6825315,25.2977642 57.6825315,25.3156175 C57.6825315,25.3336475 57.6220266,25.419511 57.5502321,25.5034742 C57.4783935,25.5873933 57.4179327,25.6732568 57.4179327,25.6912868 C57.4179327,25.70914 57.3570309,25.7884632 57.2856333,25.8636324 C57.2142358,25.9387132 57.1533339,26.029261 57.1533339,26.060239 C57.1533339,26.1815438 57.0706909,26.1176875 56.8900582,25.8570037 C56.8318905,25.7729963 56.7466015,25.662916 56.703516,25.6161176 C56.6587547,25.5675073 56.6241364,25.5087772 56.6241364,25.4813344 C56.6241364,25.4545988 56.5844466,25.4048837 56.5359368,25.3709007 C56.487427,25.3368293 56.4477372,25.2871142 56.4477372,25.2604227 C56.4477372,25.23298 56.4131189,25.1742499 56.3683576,25.1255954 C56.3252721,25.0788411 56.2406005,24.9687609 56.1831385,24.8847534 C56.1256764,24.8007902 56.0410048,24.6907099 55.9979193,24.6439556 C55.953158,24.5953011 55.9185397,24.5365711 55.9185397,24.5091725 C55.9185397,24.4823927 55.8788499,24.4326776 55.8303401,24.3986946 C55.7818303,24.3646232 55.7421405,24.3149081 55.7421405,24.2881724 C55.7421405,24.2607739 55.7075222,24.2019996 55.6627609,24.1534335 C55.6196754,24.106635 55.5350038,23.9965106 55.4775417,23.9125915 C55.4200797,23.8286283 55.3354081,23.7185038 55.2923226,23.6717053 C55.2475613,23.6231392 55.212943,23.564365 55.212943,23.5369664 C55.212943,23.5101866 55.1732532,23.4604715 55.1247434,23.4264443 C55.0762336,23.392417 55.0365438,23.342702 55.0365438,23.3159663 C55.0365438,23.2885678 55.0019255,23.2297935 54.9571642,23.1811832 C54.9140787,23.1344289 54.8294071,23.0243045 54.771945,22.9403854 C54.714483,22.856378 54.6298114,22.7462977 54.5867259,22.6994992 C54.5419646,22.6508889 54.5073463,22.5921588 54.5073463,22.5647161 C54.5073463,22.5379805 54.4676564,22.4882654 54.4191467,22.4542823 C54.3706369,22.4202109 54.3309471,22.3704959 54.3309471,22.3438044 C54.3309471,22.3163617 54.2963287,22.2576316 54.2515674,22.2089771 C54.2084819,22.1622228 54.1238103,22.0521425 54.0663483,21.9681351 C54.0088863,21.8841718 53.9242147,21.7740916 53.8811292,21.7273373 C53.8363679,21.6786828 53.8017495,21.6199527 53.8017495,21.5925542 C53.8017495,21.5657743 53.7620597,21.5160593 53.7135499,21.482032 C53.6650402,21.4480048 53.6253504,21.3982898 53.6253504,21.3715541 C53.6253504,21.3441555 53.590732,21.2853813 53.5459707,21.2368152 C53.5028852,21.1900167 53.4182136,21.0798923 53.3607516,20.9959732 C53.3032896,20.9120099 53.218618,20.8018855 53.1755325,20.755087 C53.1307712,20.7065209 53.0961528,20.6477466 53.0961528,20.6203481 C53.0961528,20.5935682 53.056463,20.5438532 53.0079532,20.5098259 C52.9594435,20.4757987 52.9197536,20.4260836 52.9197536,20.3993922 C52.9197536,20.3719494 52.8851353,20.3131752 52.840374,20.2645649 C52.7972885,20.2178106 52.7126169,20.1076861 52.6551549,20.0237671 C52.5976928,19.9397596 52.5130212,19.8296794 52.4699357,19.7828809 C52.4251744,19.7342706 52.3905561,19.6755405 52.3905561,19.6480978 C52.3905561,19.6213621 52.3508663,19.5716471 52.3023565,19.537664 C52.2538467,19.5035926 52.2141569,19.4558661 52.2141569,19.431561 C52.2141569,19.2849788 51.2704213,18.3475954 51.120482,18.3452974 C51.0896122,18.3448113 51.0675623,18.3260743 51.0675623,18.3003108 C51.0675623,18.2767127 51.0366924,18.2560754 51.0014126,18.2560754 C50.9663973,18.2560754 50.899983,18.2381338 50.8602932,18.2179384 C50.6104679,18.0907562 49.9297876,18.0184152 49.41382,18.0641973 Z M33.2556552,26.1874654 C32.5412385,26.3514589 31.9346899,26.6922171 31.4053601,27.2269305 C31.2303721,27.4036511 31.0903553,27.5617671 31.0903553,27.5826254 C31.0903553,27.6026882 31.0594854,27.6507682 31.0242056,27.6857234 C30.9035485,27.8052164 30.5695808,28.5217323 30.4759569,28.8619602 C30.425595,29.0449559 30.3722342,29.3834604 30.3567993,29.6176295 C30.2702314,30.9301077 30.8279174,32.1336105 31.9062015,32.961444 C32.1216731,33.1268516 32.8146572,33.4437466 33.1189458,33.5159992 C34.1244211,33.7548084 35.1717472,33.5611184 36.0030724,32.9827 C37.1307041,32.1981297 37.7615958,30.7577621 37.5757593,29.3922545 C37.3664175,27.8544012 36.3291022,26.6311891 34.9049875,26.2429253 C34.4860395,26.1286911 33.6361482,26.1000994 33.2556552,26.1874654 Z" id="logo—VOX" fill-opacity="0.9" fill="#000000"></path>
                </g>
            </g>
        </g>
    </g>
</svg>