<?xml version="1.0" encoding="UTF-8" standalone="no"?>
<svg width="91px" height="60px" viewBox="0 0 91 60" version="1.1" xmlns="http://www.w3.org/2000/svg" xmlns:xlink="http://www.w3.org/1999/xlink">
    <!-- Generator: Sketch 3.7.2 (28276) - http://www.bohemiancoding.com/sketch -->
    <title>logo/logo—JUNE</title>
    <desc>Created with Sketch.</desc>
    <defs></defs>
    <g id="Index—B-1.3" stroke="none" stroke-width="1" fill="none" fill-rule="evenodd">
        <g id="img/Index—B-2048px" transform="translate(-864.000000, -1160.000000)">
            <g id="Group-5-Copy" transform="translate(864.000000, 1160.000000)">
                <g id="Group-2">
                    <g id="btn—logo-320px" fill-opacity="0" fill="#FFFFFF">
                        <g id="btn—blue-invite">
                            <polygon id="bg—Header-white" points="0 0 160 0 160 60 0 60"></polygon>
                        </g>
                    </g>
                    <path d="M55.5623974,18.3651801 C53.9904819,18.9353879 52.8016011,19.7941584 52.0117939,20.9300352 L51.3278495,21.9135255 L51.1995305,18.4118687 L43.7356051,18.4118687 L43.8425384,41.4320195 L51.2209171,41.5509028 L51.2209171,35.0069121 C51.2209171,31.0621446 51.3111683,28.136748 51.4480423,27.6415447 C51.7587899,26.5175559 52.9421104,25.246368 53.9690952,24.9333802 C56.0222091,24.3078372 58.3456497,24.8972829 59.0635988,26.2257508 L59.4547595,26.9498594 L59.6686253,41.4320195 L67.0470041,41.5509028 L67.0470041,34.9690857 L67.6712784,35.9633831 C68.641589,37.5088674 69.7513404,38.6410701 71.1853113,39.5486909 C73.7985408,41.202467 76.0400706,41.7858604 79.7506466,41.7780789 C83.5467693,41.7702975 86.1050341,41.0174405 88.6153942,39.1693441 L89.5350179,38.4923577 L85.3325504,34.0612482 L83.824795,34.7795202 C80.3066979,36.4555608 75.9175255,35.9553849 74.2964214,33.6937902 C73.955732,33.2182573 73.6768515,32.6979805 73.6768515,32.5373791 L73.6768515,32.245575 L91,32.245575 L91,30.4407081 C91,26.8742056 89.7418268,23.6317148 87.4605172,21.3191083 C85.0594438,18.8850253 82.0283201,17.8336636 77.9755584,18.0292805 C73.323972,18.2540783 69.5558667,20.4402359 67.4619037,24.1290798 C67.0630438,24.8315732 66.8160282,25.0913874 66.7422448,24.8856107 C66.680437,24.7131214 66.4811138,24.1398879 66.2989006,23.6103163 C65.5026771,21.297493 64.0428274,19.6406912 61.9462987,18.6708189 C60.3266909,17.9214211 57.1984728,17.7716279 55.5623974,18.3651801 L55.5623974,18.3651801 L55.5623974,18.3651801 L55.5623974,18.3651801 Z M81.2904826,24.5484146 C82.4464279,25.0916032 83.1938899,26.0312148 83.4334198,27.2416635 L83.5681551,27.9225416 L78.5155699,27.9225416 C75.1257938,27.9225416 73.4629848,27.8477529 73.4629848,27.6955822 C73.4629848,27.3311511 74.1150621,26.1284828 74.6112321,25.577296 C76.0064938,24.0277053 79.1518219,23.5430933 81.2904826,24.5484146 L81.2904826,24.5484146 L81.2904826,24.5484146 Z M11.1851939,25.8150625 L11.1210341,33.2182573 L10.6926604,33.953173 C9.97193184,35.1899927 9.24970627,35.5866304 7.7098708,35.591602 L6.34112807,35.5959253 L4.32009404,34.1585171 L3.86028202,34.6610694 C3.60706465,34.9379599 2.63696832,35.9741903 1.70023505,36.9684887 L0,38.7733546 L0.876850811,39.563173 C3.37886956,41.8169862 7.36768515,42.570923 11.3455934,41.5413922 C14.232785,40.7943729 16.1394007,39.3232439 17.3704137,36.8928349 C18.5019789,34.6589078 18.5571563,34.1909395 18.6544654,26.0312148 L18.7453584,18.4118687 L11.2493537,18.4118687 L11.1851939,25.8150625 L11.1851939,25.8150625 L11.1851939,25.8150625 Z M19.8401387,26.0312148 C19.949852,34.3746685 19.9988274,34.7522851 21.2918615,37.2062551 C22.9409825,40.335915 26.2413632,41.981693 30.9036429,41.99985 C37.1806112,42.0240594 41.2367946,39.1161706 42.3540307,33.7910593 C42.5779485,32.7234854 42.6568651,30.5595913 42.6609286,25.3827599 L42.6662751,18.4118687 L35.2023503,18.4118687 L35.0740307,33.002105 L34.624912,33.8667121 C33.9644937,35.1381158 33.0529967,35.5959253 31.1816688,35.5959253 C29.5455935,35.5959253 28.9131916,35.3039044 28.0679931,34.1585171 C27.3765642,33.2214997 27.2779718,32.1050756 27.2728392,25.1666077 L27.2679202,18.4118687 L19.7398356,18.4118687 L19.8401387,26.0312148 L19.8401387,26.0312148 L19.8401387,26.0312148 Z" id="logo—June" fill-opacity="0.9" fill="#000000"></path>
                </g>
            </g>
        </g>
    </g>
</svg>